<?xml version="1.0" encoding="UTF-8" standalone="no"?>
<!-- Created with Inkscape (http://www.inkscape.org/) -->

<svg
   width="257"
   height="364"
   viewBox="0 0 67.997915 96.308333"
   version="1.1"
   id="svg1"
   xml:space="preserve"
   xmlns="http://www.w3.org/2000/svg"
   xmlns:svg="http://www.w3.org/2000/svg"><defs
     id="defs1" /><g
     id="layer1"><rect
       style="fill:#88a8c8;fill-opacity:1;stroke-width:0.264583"
       id="rect1"
       width="67.997917"
       height="96.308334"
       x="0"
       y="0" /><path
       id="Intersection_1"
       data-name="Intersection 1"
       d="m 31.343266,72.569915 c -0.175109,-2.004774 -0.338767,-4.002178 -0.425505,-5.313054 a 2.1725172,2.1725172 0 0 0 -1.460618,-2.106236 c -2.553834,-1.096488 -5.133851,-2.250256 -7.629586,-3.364743 v 0 c -0.916466,-0.409138 -1.864845,-0.833003 -2.796861,-1.247869 l -1.594816,-0.711897 -0.099,-0.04419 -1.439343,-0.642346 c 0.02536,0.142388 0.04583,0.260219 0.06383,0.364134 v 0 c 0.03272,0.184107 0.05564,0.316672 0.08183,0.451687 0.09247,0.432865 0.184943,0.869825 0.273301,1.292054 v 0 c 0.23322,1.109579 0.474598,2.2568 0.74381,3.385198 a 9.861837,9.861837 0 0 0 0.667712,1.85339 5.5429875,5.5429875 0 0 1 0.523694,1.607911 2.7870409,2.7870409 0 0 1 -0.256136,1.643912 1.5661763,1.5661763 0 0 0 -0.207025,1.233955 1.9294899,1.9294899 0 0 1 0.06136,0.336311 2.5791994,2.5791994 0 0 0 0.04256,0.265941 q 0.03683,0.156273 0.07772,0.311761 -0.572791,-0.04992 -1.145585,-0.103914 c -0.04092,-0.104749 -0.08183,-0.20622 -0.116192,-0.304413 v 0 A 5.1313957,5.1313957 0 0 0 16.403198,70.760708 0.91973988,0.91973988 0 0 0 15.949875,70.403942 3.8565248,3.8565248 0 0 1 13.9091,68.528458 8.0354497,8.0354497 0 0 1 13.452504,67.509704 3.3639241,3.3639241 0 0 1 13.260201,66.643971 4.6584333,4.6584333 0 0 1 13.610423,64.730846 l -2.801769,-3.370468 0.150552,-0.154665 3.287825,2.857412 a 6.1100511,6.1100511 0 0 1 0.607977,-0.380496 l 0.01299,-0.0065 c 0.789647,-0.385448 0.789647,-0.385448 0.623536,-1.227454 v -0.01392 C 15.276313,61.34482 15.116765,60.502817 14.974386,59.705819 a 2.473642,2.473642 0 0 1 0.114554,-1.747833 1.7502879,1.7502879 0 0 1 0.543336,-0.544969 5.9455782,5.9455782 0 0 1 0.934468,-0.490964 c 0.504056,-0.221746 0.643162,-0.468874 0.534333,-0.945107 -0.148109,-0.650529 -0.297022,-1.292055 -0.454143,-1.972861 l -0.0059,-0.02443 -0.222581,-0.96229 c -0.14483,0.08919 -0.269218,0.171026 -0.37968,0.245498 v 0 a 3.665867,3.665867 0 0 1 -0.572797,0.33127 2.8369556,2.8369556 0 0 1 -1.182406,0.256136 2.8639587,2.8639587 0 0 1 -1.391063,-0.361677 6.7049363,6.7049363 0 0 0 -1.001568,-0.400955 c -0.147304,-0.04911 -0.299496,-0.100636 -0.445959,-0.156273 0.441048,-0.245498 0.431229,-0.666896 0.42059,-1.116947 a 3.3025534,3.3025534 0 0 1 0.01794,-0.558879 9.5083427,9.5083427 0 0 1 0.315856,-1.276508 c 0.06219,-0.209468 0.126831,-0.42714 0.187386,-0.65462 L 9.4491491,48.731146 a 1.4377073,1.4377073 0 0 0 0.6758949,-0.669348 3.0374327,3.0374327 0 0 0 0.24058,-0.884552 3.4424784,3.4424784 0 0 1 0.27494,-0.937744 2.5775628,2.5775628 0 0 1 0.503236,-0.724171 2.7878592,2.7878592 0 0 1 0.729083,-0.519606 4.1142812,4.1142812 0 0 1 0.954107,-0.327308 12.033536,12.033536 0 0 0 0.64562,2.414728 12.066267,12.066267 0 0 0 1.130035,2.228978 c 0.01484,-0.08183 0.02691,-0.163665 0.04008,-0.237302 v 0 c 0.02536,-0.163665 0.04911,-0.3003 0.08183,-0.439413 a 2.9703343,2.9703343 0 0 1 0.252023,-0.741354 1.8141133,1.8141133 0 0 1 0.405046,-0.534333 1.6128179,1.6128179 0 0 1 0.562155,-0.327312 2.2617091,2.2617091 0 0 1 0.723352,-0.108832 c 0.06792,0 0.138305,0 0.209468,0.0065 0.02876,0 0.05647,0 0.08183,0 a 0.44759582,0.44759582 0 0 0 0.353494,-0.122749 0.91483024,0.91483024 0 0 0 0.163665,-0.327308 c 0.05728,-0.163665 0.113749,-0.322401 0.168552,-0.480329 v -0.0059 c 0.202107,-0.578518 0.409138,-1.178314 0.672622,-1.742105 a 8.2874781,8.2874781 0 0 1 0.886189,-1.491505 7.9969909,7.9969909 0 0 1 1.130037,-1.220864 8.9805562,8.9805562 0 0 1 1.358334,-0.981929 11.542572,11.542572 0 0 1 1.571905,-0.765084 c 1.586633,-0.635802 3.136444,-1.4418 4.63552,-2.222434 l 0.01485,-0.0074 0.797818,-0.414862 a 7.8006051,7.8006051 0 0 0 1.189779,-0.818279 v 0 c 0.183304,-0.143192 0.371497,-0.290497 0.572791,-0.432869 a 3.9129858,3.9129858 0 0 1 -0.662801,1.102216 10.58601,10.58601 0 0 1 -0.87228,0.900102 l -0.04008,0.03844 a 7.6819553,7.6819553 0 0 0 4.232932,-3.714963 c 0.900099,-1.774835 1.686462,-3.538215 1.342787,-5.592902 h 0.180025 c 0.045,0.711897 0.09492,1.491712 0.148109,2.319807 a 6.2917079,6.2917079 0 0 1 -1.027753,3.935895 9.592625,9.592625 0 0 1 -1.263413,1.54654 19.178704,19.178704 0 0 1 -1.547359,1.386155 7.677864,7.677864 0 0 1 -1.921305,1.117763 c -0.680806,0.284744 -1.403342,0.507331 -2.102147,0.723355 l -0.314217,0.09736 c -1.27078,0.395227 -2.628294,0.865733 -4.147011,1.438524 a 7.2188125,7.2188125 0 0 0 -2.894234,2.437638 l -0.0099,0.01144 -0.125192,0.150553 a 3.1659017,3.1659017 0 0 0 -0.456614,0.716003 3.4522977,3.4522977 0 0 0 -0.245497,0.741358 8.2563836,8.2563836 0 0 0 -0.129275,1.530989 11.031151,11.031151 0 0 1 -0.07119,1.192226 v 0 h 0.426321 v 0 c 0.136635,0 0.265941,0 0.395228,0 0.308495,0 0.542513,-0.0074 0.760176,-0.02289 0.09083,-0.0065 0.222581,-0.219303 0.251219,-0.367406 a 2.7223973,2.7223973 0 0 1 0.63989,-1.257685 2.8639587,2.8639587 0 0 1 1.185678,-0.747085 12.509772,12.509772 0 0 1 4.047182,-0.837095 7.1484409,7.1484409 0 0 1 1.293691,0.116192 5.5331682,5.5331682 0 0 1 2.412272,0.977021 3.7035078,3.7035078 0 0 1 0.852642,0.918921 4.3687643,4.3687643 0 0 1 0.553972,1.280599 0.5016019,0.5016019 0 0 0 0.35513,0.282301 h 0.01546 a 15.334453,15.334453 0 0 1 2.262527,-0.163665 20.748153,20.748153 0 0 1 3.063618,0.245497 c 0.04008,-0.140748 0.07528,-0.280661 0.108831,-0.416501 v 0 a 6.2467031,6.2467031 0 0 1 0.245467,-0.828912 c 0.629254,-1.558811 2.030957,-2.019498 3.453117,-2.283802 a 8.9404607,8.9404607 0 0 1 1.622638,-0.148109 9.3095023,9.3095023 0 0 1 3.927715,0.778996 3.4171118,3.4171118 0 0 1 1.886939,2.161879 c 0.05811,0.306021 0.314217,0.394407 0.594065,0.394407 a 1.0375713,1.0375713 0 0 0 0.130914,-0.009 6.4643638,6.4643638 0 0 1 0.679167,-0.05483 v 0 c 0.124387,-0.0059 0.253662,-0.01237 0.398499,-0.02196 -0.03928,-0.3003 -0.0532,-0.615343 -0.06628,-0.920557 v 0 a 9.5738047,9.5738047 0 0 0 -0.08183,-0.98684 2.4998268,2.4998268 0 0 0 -0.273301,-0.86737 8.4331308,8.4331308 0 0 0 -3.808247,-3.868799 c -0.81253,-0.347129 -1.665172,-0.633525 -2.490812,-0.91092 l -0.4836,-0.163665 C 42.588396,40.146524 42.261904,40.04997 41.944415,39.95586 v 0 c -0.46969,-0.138305 -0.954926,-0.281497 -1.416433,-0.462326 a 6.0012209,6.0012209 0 0 1 -1.238046,-0.736447 l -0.08183,-0.05975 c -0.292104,-0.207024 -0.572788,-0.441048 -0.84282,-0.666891 v 0 c -0.117834,-0.09903 -0.239748,-0.201305 -0.360861,-0.299497 l -0.09491,0.09739 1.188134,1.114488 A 2.0383203,2.0383203 0 0 1 38.131669,38.401251 7.7114132,7.7114132 0 0 1 37.067911,37.215573 12.513044,12.513044 0 0 1 36.283187,36.01762 11.796237,11.796237 0 0 1 35.64657,34.748476 7.1541688,7.1541688 0 0 1 35.246435,33.553795 2.7150328,2.7150328 0 0 1 35.176875,32.58005 c 0.02938,0.05072 0.063,0.100636 0.09655,0.150552 a 1.0408444,1.0408444 0 0 1 0.172664,0.336311 6.4439069,6.4439069 0 0 0 1.790383,3.236273 l -0.363314,-1.193042 0.145666,-0.05891 c 0.14483,0.193107 0.288022,0.393587 0.425504,0.588337 a 10.60483,10.60483 0 0 0 1.013023,1.284691 8.8283572,8.8283572 0 0 0 1.872209,1.382064 l -0.736459,-0.856731 -0.586702,-0.681622 0.104749,-0.128471 c 0.129275,0.08183 0.263497,0.163665 0.393588,0.245467 v 0 a 7.7236875,7.7236875 0 0 1 0.818276,0.553152 13.964663,13.964663 0 0 0 2.34681,1.535081 19.752314,19.752314 0 0 0 2.574289,1.109579 7.3980143,7.3980143 0 0 1 1.40825,0.672623 7.1238926,7.1238926 0 0 1 1.183222,0.916466 7.9127086,7.9127086 0 0 1 0.976201,1.138221 9.6908178,9.6908178 0 0 1 0.788818,1.336239 c 0.481145,0.981932 0.84282,1.782202 1.139854,2.528468 0.09655,0.245498 0.222581,0.349403 0.420593,0.349403 a 1.042481,1.042481 0 0 0 0.214386,-0.02691 3.6380458,3.6380458 0 0 1 0.765904,-0.09 1.9843142,1.9843142 0 0 1 1.092396,0.291301 2.2797111,2.2797111 0 0 1 0.775724,0.882916 14.659377,14.659377 0 0 0 0.725808,-2.945786 14.63401,14.63401 0 0 0 0.10311,-3.027616 21.221116,21.221116 0 0 0 -2.295273,-8.306399 20.136084,20.136084 0 0 0 -4.705074,-6.004492 22.420705,22.420705 0 0 0 -4.255024,-2.959697 20.244915,20.244915 0 0 0 -4.860547,-1.822296 22.099942,22.099942 0 0 0 -5.022563,-0.595705 21.589339,21.589339 0 0 0 -11.455836,3.420384 21.454324,21.454324 0 0 0 -4.509508,3.854889 c -0.06547,0.07364 -0.133388,0.14483 -0.199664,0.213581 v 0 l -0.101472,0.106388 a 4.6862545,4.6862545 0 0 1 -1.235594,-2.379539 3.8156113,3.8156113 0 0 1 0.546605,-2.775587 3.9072579,3.9072579 0 0 0 0.427141,-1.207772 c 0.04419,-0.185747 0.08919,-0.378041 0.14483,-0.556424 0.126832,0 0.26758,0.01051 0.416502,0.02196 0.168552,0.01237 0.342039,0.02536 0.519603,0.02536 a 2.1487873,2.1487873 0 0 0 0.594068,-0.07119 4.7533532,4.7533532 0 0 1 1.282235,-0.189829 3.5136681,3.5136681 0 0 1 1.424613,0.294579 4.1731969,4.1731969 0 0 1 1.271599,0.900099 3.6200439,3.6200439 0 0 0 0.382133,0.313401 0.05564264,0.05564264 0 0 0 0.03356,0.0074 h 0.04092 c 0.02691,0 0.063,-0.0049 0.11211,-0.0049 -0.01392,-0.07611 -0.02629,-0.151387 -0.03844,-0.22422 v 0 c -0.02536,-0.163634 -0.05156,-0.31255 -0.08839,-0.463115 a 3.2027242,3.2027242 0 0 1 1.278963,-3.530851 c 1.113671,-0.824001 1.113671,-0.824001 1.375516,-1.421341 0.168552,0.07528 0.337131,0.153026 0.500784,0.229106 0.343675,0.163665 0.699625,0.327309 1.05803,0.454959 a 5.430884,5.430884 0 0 1 1.479437,0.763452 3.7534223,3.7534223 0 0 1 1.103036,1.337879 c 0.02783,-0.138305 0.05156,-0.264301 0.07447,-0.386228 0.04583,-0.245497 0.08183,-0.452503 0.141552,-0.654617 a 2.9506957,2.9506957 0 0 1 0.895191,-1.426252 6.832587,6.832587 0 0 1 1.405794,-0.925468 l 0.05647,-0.02938 a 1.753561,1.753561 0 0 0 1.116126,-1.145569 2.4957354,2.4957354 0 0 0 1.44098,1.48926 l 0.202107,0.113749 a 3.3925636,3.3925636 0 0 1 1.240502,1.181586 4.0782771,4.0782771 0 0 1 0.541697,1.619366 c 0.08183,-0.108832 0.163665,-0.220942 0.245498,-0.327309 a 6.5380084,6.5380084 0 0 1 0.532694,-0.660347 3.2248174,3.2248174 0 0 1 0.998295,-0.696353 5.6264514,5.6264514 0 0 1 1.164404,-0.373133 c 0.706169,-0.163665 0.711896,-0.170191 1.003203,-0.673439 l 0.009,-0.01392 c 0.202107,0.19722 0.414046,0.396863 0.617795,0.589157 v 0 c 0.458235,0.431232 0.930377,0.878008 1.364062,1.348517 a 3.6920519,3.6920519 0 0 1 0.906649,3.206815 1.5457194,1.5457194 0 0 0 0.01144,0.708625 4.786084,4.786084 0 0 0 0.403407,-0.397683 3.2649129,3.2649129 0 0 1 1.129218,-0.916465 3.178176,3.178176 0 0 1 1.37634,-0.295414 4.1543767,4.1543767 0 0 1 0.451687,0.02536 c 0.261858,0.02783 0.531058,0.08183 0.76754,0.13011 0.115388,0.02288 0.232385,0.05072 0.345311,0.08183 a 3.9277148,3.9277148 0 0 0 0.900103,0.142387 1.5489925,1.5489925 0 0 0 1.002383,-0.351858 2.3427182,2.3427182 0 0 0 0.421413,1.837843 c 0.08591,0.156273 0.176747,0.316673 0.252858,0.478692 a 3.9841755,3.9841755 0 0 1 0.327309,1.063755 3.5013941,3.5013941 0 0 1 0.0099,1.026934 3.9735382,3.9735382 0 0 1 -0.277384,0.99502 5.4521589,5.4521589 0 0 1 -0.53188,0.964746 c -0.08839,0.129274 -0.180026,0.261858 -0.261858,0.37968 l -0.0049,0.0074 -0.148109,0.213581 0.099,0.131749 c 0.06219,-0.01887 0.126832,-0.036 0.187386,-0.05319 v 0 a 3.5922224,3.5922224 0 0 0 0.409135,-0.128471 5.2451359,5.2451359 0 0 1 0.892739,-0.273301 4.3368518,4.3368518 0 0 1 0.873917,-0.09083 4.2435686,4.2435686 0 0 1 1.201225,0.175943 5.3236901,5.3236901 0 0 1 1.188133,0.522059 3.8966202,3.8966202 0 0 0 1.179134,0.377224 c 0.170191,0.0352 0.327309,0.06872 0.47869,0.108832 -0.0059,0.236467 -0.01484,0.477053 -0.02381,0.732355 v 0 c -0.01887,0.564607 -0.03928,1.145584 -0.03844,1.738013 a 4.7361693,4.7361693 0 0 1 -0.121914,1.103033 3.7640599,3.7640599 0 0 1 -0.370677,0.959834 3.7166001,3.7166001 0 0 1 -0.62189,0.818276 4.6330668,4.6330668 0 0 1 -0.875553,0.677531 2.8189536,2.8189536 0 0 0 -0.270023,0.193942 v 0 c -0.06872,0.05236 -0.14483,0.11211 -0.245466,0.184943 0.131748,0.02134 0.245466,0.04092 0.344494,0.05811 v 0 c 0.187386,0.03272 0.333856,0.05811 0.481145,0.06872 a 5.4006078,5.4006078 0 0 1 0.969654,0.136666 4.1191909,4.1191909 0 0 1 0.877192,0.314217 3.6936885,3.6936885 0 0 1 0.774904,0.513059 4.0668214,4.0668214 0 0 1 0.659528,0.736447 c 0.08183,0.116996 0.163665,0.24058 0.239745,0.359222 a 2.4343649,2.4343649 0 0 0 1.653732,1.350969 2.8958714,2.8958714 0 0 0 -1.418885,1.472894 l -0.02938,0.05156 a 4.8384535,4.8384535 0 0 1 -1.295329,1.533444 3.5856764,3.5856764 0 0 1 -0.85755,0.474598 3.8941656,3.8941656 0 0 1 -1.026934,0.236467 2.5088278,2.5088278 0 0 0 -0.480328,0.128471 c -0.01639,0.0049 -0.02691,0.02536 -0.04744,0.06136 -0.01392,0.02381 -0.03031,0.05236 -0.05483,0.08839 0.08183,0.02783 0.163665,0.05728 0.238941,0.08183 0.163665,0.05811 0.313397,0.113749 0.470506,0.156305 a 3.3549231,3.3549231 0 0 1 0.736446,0.2913 2.7420359,2.7420359 0 0 1 0.589977,0.43614 2.7984968,2.7984968 0 0 1 0.450868,0.580974 3.5185777,3.5185777 0 0 1 0.315853,0.727447 c 0.129274,0.416502 0.299496,0.828912 0.480329,1.265052 0.08755,0.213581 0.17919,0.433685 0.271661,0.670164 -0.126027,-0.01051 -0.25694,-0.02041 -0.372313,-0.02938 -0.287218,-0.02134 -0.584249,-0.04419 -0.873097,-0.08183 -0.198025,-0.02536 -0.398502,-0.06219 -0.592432,-0.09736 a 6.9062317,6.9062317 0 0 0 -0.999931,-0.131749 h -0.0065 c -0.124388,0 -0.245467,0.106389 -0.333856,0.294579 a 1.2004078,1.2004078 0 0 0 -0.109636,0.490964 0.70371557,0.70371557 0 0 0 0.131749,0.446776 3.9039849,3.9039849 0 0 1 0.838731,2.364812 1.2364119,1.2364119 0 0 0 0.245467,0.543333 c 0.06547,0.102276 0.139913,0.217664 0.208663,0.347767 a 1.7183752,1.7183752 0 0 0 -0.521238,-0.08183 2.9048724,2.9048724 0 0 0 -1.257689,0.382953 c -0.181664,0.08675 -0.369861,0.177582 -0.559699,0.245497 a 1.762562,1.762562 0 0 1 -0.603068,0.108832 2.3279893,2.3279893 0 0 1 -1.259324,-0.430413 5.1207581,5.1207581 0 0 0 -0.17183,3.246909 c 0.04419,0.144027 0.301939,0.255302 0.379677,0.285579 a 4.0758224,4.0758224 0 0 1 0.869828,0.44514 1.9589477,1.9589477 0 0 1 0.552332,0.564611 1.9163975,1.9163975 0 0 1 0.262662,0.742993 3.8614344,3.8614344 0 0 1 0,0.975382 c -0.09247,0.887008 -0.220941,1.760924 -0.385407,2.802588 -0.06547,0.409135 -0.09575,0.635798 -0.01299,0.792087 a 1.4360707,1.4360707 0 0 0 0.698809,0.511423 2.7772216,2.7772216 0 0 1 1.59236,1.758472 4.3933126,4.3933126 0 0 1 -0.297857,2.78213 5.9979476,5.9979476 0 0 1 -0.93774,1.406614 4.009542,4.009542 0 0 1 -1.35097,0.88128 0.881281,0.881281 0 0 0 -0.343675,0.382132 2.3967243,2.3967243 0 0 1 -0.141552,0.213582 l 0.12847,0.140748 0.981929,-0.261858 -0.08183,0.356769 v 0 a 12.251197,12.251197 0 0 1 -1.837843,0.438593 l -0.420593,0.04172 c 0.110471,-0.437776 0.203747,-0.882099 0.279023,-1.325603 a 0.73644652,0.73644652 0 0 0 -0.145666,-0.490965 3.4277495,3.4277495 0 0 1 -0.517967,-1.010567 2.4548217,2.4548217 0 0 1 -0.07283,-1.129218 5.3187805,5.3187805 0 0 1 0.295413,-1.125126 3.070982,3.070982 0 0 1 0.621887,-0.990931 0.91810332,0.91810332 0 0 0 0.240581,-0.475418 c 0.174303,-1.279779 0.339583,-2.578381 0.490964,-3.859796 0.06219,-0.535153 0.114553,-1.079305 0.170191,-1.653732 0.02536,-0.261858 0.05072,-0.531877 0.08183,-0.818276 -0.114553,0.0442 -0.204581,0.08183 -0.285579,0.107997 -0.135831,0.04992 -0.233219,0.08675 -0.327311,0.130913 -1.368153,0.650526 -2.756764,1.314965 -4.097915,1.958946 -2.802589,1.342787 -5.698459,2.729762 -8.56651,4.056186 a 2.386905,2.386905 0 0 0 -1.583361,2.300985 c -0.09,1.276507 -0.236467,3.200271 -0.387044,5.155125 l -0.790451,0.01639 c 0.04092,-0.603069 0.08183,-1.211864 0.123553,-1.806749 v 0 c 0.157109,-2.291169 0.292136,-4.26239 0.313398,-4.701803 a 6.1059598,6.1059598 0 0 1 -1.528534,0.754449 5.009473,5.009473 0 0 1 -1.524445,0.238942 6.7401221,6.7401221 0 0 1 -2.980152,-0.780632 c 0,0.08183 0.07119,1.166039 0.17183,2.665118 0.07283,1.089122 0.157944,2.372993 0.241384,3.652775 z M 15.667592,64.297983 a 1.4998961,1.4998961 0 0 0 -0.714355,0.312582 l -0.02443,0.02134 a 2.3729943,2.3729943 0 0 0 -0.528602,2.89587 4.6747989,4.6747989 0 0 0 0.688167,1.309237 1.8885762,1.8885762 0 0 0 1.26014,0.654621 1.4000666,1.4000666 0 0 0 1.131674,-0.463143 c 0.13747,-0.238106 -0.688986,-0.267579 -0.69635,-0.43614 -0.0074,-0.168552 0.717624,-0.499964 0.625979,-0.818273 -0.09164,-0.318309 -0.828092,-0.471326 -0.836276,-0.562975 -0.0084,-0.09164 0.472962,-0.534333 0.450052,-0.724988 -0.03031,-0.250384 -0.297022,-0.342039 -0.566247,-0.515514 a 1.4663468,1.4663468 0 0 1 -0.572785,-0.522123 l 0.04911,-0.02938 c 0.04828,-0.02876 0.131749,-0.08839 0.185747,-0.126831 a 0.65952878,0.65952878 0 0 0 0.26758,-0.442684 0.45496028,0.45496028 0 0 0 -0.126831,-0.414866 0.58179275,0.58179275 0 0 0 -0.434502,-0.15383 0.90010131,0.90010131 0 0 0 -0.158747,0.01732 z m 37.722425,0.232385 c -0.08839,0.345314 0.393591,0.590796 0.281497,1.026117 -0.11211,0.435321 -1.12431,0.702897 -1.117763,1.063755 0.0065,0.360858 0.58343,0.376408 0.470506,0.742174 -0.112914,0.365769 -0.762629,0.190665 -0.759357,0.52697 0.0034,0.336311 0.513059,0.463142 0.590793,0.646437 0.07775,0.183303 -0.63907,0.163665 -0.42141,0.477869 a 0.8027267,0.8027267 0 0 0 0.632526,0.400955 1.2225012,1.2225012 0 0 0 0.547425,-0.07611 3.3958366,3.3958366 0 0 0 1.905761,-3.836069 1.6987366,1.6987366 0 0 0 -1.047391,-1.198769 1.3092382,1.3092382 0 0 0 -0.529425,-0.126832 0.51796738,0.51796738 0 0 0 -0.550697,0.352678 z M 16.0039,58.160929 v 0 c 0.04583,0.02629 0.09164,0.054 0.135831,0.08183 a 2.7330348,2.7330348 0 0 0 0.289661,0.163665 c 0.654621,0.297022 1.314968,0.594065 1.954038,0.88128 v 0 c 1.104672,0.497511 2.247801,1.012206 3.368016,1.523625 l 1.513809,0.693898 0.103915,0.04747 h 0.0049 c 2.917145,1.33624 5.933302,2.715851 8.885635,4.097915 a 5.7655581,5.7655581 0 0 0 2.477732,0.587521 5.4554322,5.4554322 0 0 0 0.760993,-0.05483 5.2369529,5.2369529 0 0 0 1.800205,-0.712716 c 0.15383,-0.08183 0.312581,-0.17183 0.472962,-0.253663 1.211864,-0.620251 2.472005,-1.197953 3.690416,-1.756836 0.518786,-0.238106 1.054755,-0.483597 1.582541,-0.731535 2.309988,-1.083393 4.682164,-2.197884 7.050248,-3.311555 0.682439,-0.321581 1.373064,-0.66362 2.039956,-0.993384 h 0.0074 c 0.292939,-0.144831 0.595704,-0.294579 0.895194,-0.441049 a 1.6201823,1.6201823 0 0 0 -1.18159,-0.736446 1.1684951,1.1684951 0 0 0 -0.517966,0.131749 l -0.67344,0.327311 c -0.860005,0.418954 -1.750288,0.852642 -2.630749,1.274871 -0.952471,0.456596 -1.913125,0.914011 -2.843505,1.356698 -1.963857,0.935288 -3.99563,1.902486 -5.983217,2.876232 -0.270023,0.131748 -0.548244,0.255301 -0.818273,0.375588 a 8.4192202,8.4192202 0 0 0 -2.3256,1.350939 2.1970654,2.1970654 0 0 1 -1.472893,0.548244 A 2.3582654,2.3582654 0 0 1 32.7981,64.676842 1.5956341,1.5956341 0 0 0 32.256404,64.306165 C 30.77778,63.625359 29.28116,62.940464 27.837725,62.27848 l -0.01979,-0.0099 c -1.42946,-0.654537 -2.906442,-1.329612 -4.35806,-1.99896 -0.927105,-0.425501 -1.866484,-0.864097 -2.775586,-1.287962 v 0 h -0.004 c -0.907475,-0.423866 -1.846035,-0.862462 -2.77232,-1.287147 A 1.9851325,1.9851325 0 0 0 17.09706,57.485848 1.3092382,1.3092382 0 0 0 16.0063,58.160106 Z m 13.50152,1.358334 a 0.4582334,0.4582334 0 0 0 -0.322398,0.223385 c -0.238941,0.450873 -0.458234,0.900105 -0.690625,1.377158 v 0 c -0.09,0.184108 -0.183304,0.374769 -0.277383,0.566247 0.277383,0.120275 0.572794,0.245498 0.837095,0.357586 0.661984,0.279857 1.345242,0.572791 2.012954,0.888644 0.198829,0.09575 0.404226,0.184943 0.603884,0.271662 v 0 a 6.0756836,6.0756836 0 0 1 1.805113,1.053119 1.5211712,1.5211712 0 0 0 1.079305,0.445956 1.5244443,1.5244443 0 0 0 0.497509,-0.08183 1.5268991,1.5268991 0 0 0 0.455778,-0.251219 9.8962045,9.8962045 0 0 1 1.608727,-1.063755 c 0.781452,-0.387044 1.562903,-0.736447 2.389362,-1.098944 0.347764,-0.15383 0.706169,-0.312581 1.063755,-0.474598 -0.06955,-0.133387 -0.13747,-0.261858 -0.203746,-0.387044 v 0 C 40.233001,61.100164 40.108614,60.861213 39.991617,60.620639 39.884425,60.400533 39.782953,60.168136 39.6774,59.92347 v 0 c -0.06875,-0.157109 -0.138305,-0.319125 -0.216024,-0.490964 -0.08183,0.03108 -0.154666,0.05564 -0.228303,0.08183 a 1.3476971,1.3476971 0 0 0 -0.409138,0.18083 0.90010131,0.90010131 0 0 0 -0.18819,0.233219 0.71517139,0.71517139 0 0 1 -0.236498,0.265941 10.100773,10.100773 0 0 1 -2.040772,0.778179 8.2645666,8.2645666 0 0 1 -2.037504,0.261023 8.023994,8.023994 0 0 1 -2.079233,-0.277384 9.4764302,9.4764302 0 0 1 -2.071053,-0.839547 0.98192869,0.98192869 0 0 1 -0.252023,-0.231581 c -0.04172,-0.04664 -0.08183,-0.09655 -0.13011,-0.139078 q -0.03436,-0.03272 -0.07036,-0.07283 c -0.06872,-0.07364 -0.141553,-0.150552 -0.208664,-0.150552 z m 11.644038,-0.18083 c -0.227467,0.04011 -0.462326,0.08183 -0.693078,0.109636 0.04664,0.163665 0.09,0.327312 0.132553,0.481965 v 0 c 0.103914,0.385407 0.202107,0.748721 0.333856,1.101396 a 0.61534199,0.61534199 0 0 0 0.409138,0.290496 0.08182738,0.08182738 0 0 0 0.03272,-0.0059 c 0.791271,-0.342856 1.561267,-0.707808 2.377087,-1.093213 0.206221,-0.09819 0.440232,-0.207829 0.67262,-0.316673 a 2.6921212,2.6921212 0 0 0 -1.910669,-0.727447 v 0 a 8.0109015,8.0109015 0 0 0 -1.355062,0.157913 z m -16.884262,0.566247 0.668528,0.287218 0.054,0.02289 v 0 c 0.787182,0.337947 1.531809,0.65462 2.291169,0.981928 a 0.51551256,0.51551256 0 0 0 0.196386,0.04664 c 0.154665,0 0.259384,-0.107997 0.327308,-0.339583 0.103111,-0.349403 0.225024,-0.697989 0.352675,-1.063755 0.0352,-0.102276 0.07691,-0.219303 0.115388,-0.333856 a 4.3859482,4.3859482 0 0 0 -1.832112,-0.42548 3.1315342,3.1315342 0 0 0 -2.174154,0.823184 z M 19.208263,49.758081 c 0.02443,0.121914 0.04828,0.245498 0.07036,0.369861 v 0 c 0.04583,0.245498 0.09247,0.501603 0.153026,0.749538 0.05319,0.210303 0.104749,0.426321 0.154665,0.634982 v 0 a 9.9829418,9.9829418 0 0 0 1.10876,3.085711 c 1.119399,1.776472 2.824683,2.880323 5.37115,3.472756 a 40.801593,40.801593 0 0 0 4.282029,0.766721 35.527,35.527 0 0 0 4.311486,0.269218 32.475654,32.475654 0 0 0 4.729621,-0.343675 c 0.297022,-0.04336 0.599796,-0.08183 0.892739,-0.124388 a 15.332816,15.332816 0 0 0 4.922735,-1.242958 c 1.31824,-0.666075 2.776402,-1.506442 3.405656,-3.056253 a 29.130551,29.130551 0 0 0 1.040845,-3.296825 c 0.134191,-0.490965 0.271661,-0.99584 0.419773,-1.493348 h -0.01144 c -0.163665,0 -0.3003,-0.004 -0.424684,-0.004 -0.432866,0 -0.665256,0.02536 -0.818273,0.172665 a 1.88203,1.88203 0 0 0 -0.327312,0.869825 5.8817528,5.8817528 0 0 1 -0.89028,2.055503 4.3483074,4.3483074 0 0 1 -0.741358,0.802726 4.4931421,4.4931421 0 0 1 -0.981928,0.618615 7.5649422,7.5649422 0 0 1 -3.242818,0.724175 8.5362333,8.5362333 0 0 1 -1.659459,-0.167748 4.7500799,4.7500799 0 0 1 -2.021137,-0.87228 4.1077349,4.1077349 0 0 1 -1.30924,-1.784655 c -0.129275,-0.327308 -0.23322,-0.675075 -0.333856,-1.00975 -0.09411,-0.312582 -0.190664,-0.634162 -0.307661,-0.941832 a 1.1684951,1.1684951 0 0 0 -0.193942,-0.327312 0.54660698,0.54660698 0 0 0 -0.275744,-0.195551 12.722523,12.722523 0 0 0 -2.504735,-0.24958 12.769983,12.769983 0 0 0 -1.758472,0.121914 0.78390639,0.78390639 0 0 0 -0.774088,0.810093 6.1206887,6.1206887 0 0 1 -0.486053,1.759288 4.7770831,4.7770831 0 0 1 -0.939379,1.3747 4.6019726,4.6019726 0 0 1 -1.353426,0.942652 5.5405325,5.5405325 0 0 1 -1.725763,0.463071 6.3285304,6.3285304 0 0 1 -0.69717,0.036 15.98989,15.98989 0 0 1 -1.92376,-0.157108 h -0.03436 a 3.1544458,3.1544458 0 0 1 -1.363249,-0.512265 6.7859456,6.7859456 0 0 1 -1.123487,-0.960651 4.2754811,4.2754811 0 0 1 -0.789635,-1.154587 12.430399,12.430399 0 0 1 -0.506511,-1.287143 c -0.04747,-0.135027 -0.09655,-0.274136 -0.14647,-0.409138 a 2.2093396,2.2093396 0 0 0 -0.219303,-0.504056 0.33385575,0.33385575 0 0 0 -0.3003,-0.148913 3.038251,3.038251 0 0 0 -0.67917,0.140749 z m 30.95612,6.559284 a 3.3361026,3.3361026 0 0 0 -0.429596,0.936107 l 1.872212,-0.891099 -0.09164,-0.409138 v 0 c -0.08183,-0.349403 -0.152191,-0.679167 -0.245467,-1.093213 l -0.595729,1.114487 a 0.17183752,0.17183752 0 0 0 -0.06136,-0.01051 c -0.129274,-0.0059 -0.285579,0.121914 -0.449231,0.350223 z M 19.269634,55.409082 c 0.03108,0.05564 0.063,0.11211 0.09736,0.163665 a 0.48278162,0.48278162 0 0 0 0.262662,0.148913 1.1668586,1.1668586 0 0 1 0.141553,0.05319 1.0801216,1.0801216 0 0 1 0.05072,-0.126831 c 0.04092,-0.09164 0.08183,-0.187386 0.05319,-0.245498 -0.04908,-0.09328 -0.09655,-0.189829 -0.143192,-0.283136 v 0 C 19.444709,54.534341 19.147681,53.930457 18.355591,53.816717 A 3.9457167,3.9457167 0 0 1 17.81635,53.638331 l 0.09736,0.228302 v 0 c 0.17183,0.400955 0.319945,0.747085 0.473778,1.092396 a 0.18983954,0.18983954 0 0 0 0.122749,0.08183 0.02454822,0.02454822 0 0 0 0.01052,0 0.73071861,0.73071861 0 0 1 0.260219,-0.05811 c 0.251219,8.2e-4 0.369861,0.202942 0.486873,0.423049 z m 18.76711,-7.384103 a 5.0732983,5.0732983 0 0 0 0.972929,4.464503 4.1339198,4.1339198 0 0 0 3.507121,1.670915 8.2367451,8.2367451 0 0 0 1.74865,-0.207025 c 1.745381,-0.382132 2.832046,-1.60136 3.229729,-3.624133 a 6.8800471,6.8800471 0 0 0 0.09411,-0.771632 v 0 a 6.4250866,6.4250866 0 0 0 -0.01794,-0.736447 3.591404,3.591404 0 0 0 -3.690416,-3.312374 4.3998589,4.3998589 0 0 0 -0.736447,0.06219 c 1.51299,0.693077 2.045687,1.103848 2.273983,2.493279 0.228303,1.389427 -1.112032,3.786973 -3.242817,3.791064 -2.130788,0.004 -3.067709,-2.739581 -2.904056,-3.876982 a 4.5733327,4.5733327 0 0 1 1.450799,-2.202796 3.0611627,3.0611627 0 0 0 -2.68721,2.246165 z M 21.461788,47.563472 a 5.9824004,5.9824004 0 0 0 1.161131,5.188675 4.3589451,4.3589451 0 0 0 3.377835,1.404975 4.8081776,4.8081776 0 0 0 2.217523,-0.513875 4.0856417,4.0856417 0 0 0 1.602179,-1.468802 6.2712513,6.2712513 0 0 0 0.778996,-2.030956 3.6445921,3.6445921 0 0 0 -0.69553,-3.08162 4.1502854,4.1502854 0 0 0 -3.332013,-1.443435 c -0.11375,0 -0.230746,0 -0.347767,0.01051 v 0 c 0.09983,0.04092 0.175943,0.07283 0.237302,0.09903 v 0 c 0.09411,0.03928 0.155469,0.06547 0.217663,0.08183 0.358406,0.118636 2.133241,1.335423 1.937675,2.89669 -0.195551,1.561267 -1.718375,3.206815 -3.41302,3.141352 -1.694645,-0.06535 -2.877871,-0.972824 -2.998155,-3.14125 a 2.8459566,2.8459566 0 0 1 1.858298,-2.836138 c -1.330512,0.02876 -2.40327,0.723355 -2.604567,1.689737 z m -5.79338,1.690554 a 3.0865292,3.0865292 0 0 0 0.235663,1.309237 4.9014608,4.9014608 0 0 0 0.747086,1.267507 4.1486487,4.1486487 0 0 0 2.372995,1.550628 c -0.01144,-0.06136 -0.02196,-0.12111 -0.03192,-0.17919 v 0 c -0.02536,-0.144831 -0.04992,-0.283136 -0.08183,-0.418958 -0.07691,-0.359222 -0.158748,-0.723355 -0.237302,-1.076029 v 0 C 18.494714,50.908577 18.311419,50.082937 18.15513,49.259753 A 1.4622555,1.4622555 0 0 0 17.606071,48.436569 1.6455488,1.6455488 0 0 0 16.614323,48.06262 h -0.0352 c -0.537608,0.0099 -0.864917,0.444323 -0.913194,1.187314 z m 35.032761,0.09328 c -0.04172,0.378861 -0.102276,0.876369 -0.198025,1.371425 -0.115389,0.563791 -0.245498,1.116127 -0.378041,1.700373 v 0 0.004 c -0.05728,0.245498 -0.116193,0.505695 -0.175108,0.765088 a 1.2912362,1.2912362 0 0 0 0.193107,0.01392 h 0.05075 a 1.9794046,1.9794046 0 0 0 0.375586,-0.09247 4.8760943,4.8760943 0 0 0 2.886053,-3.417112 1.1210353,1.1210353 0 0 0 0.01485,-0.533517 1.4336159,1.4336159 0 0 0 -0.212746,-0.497508 1.5007143,1.5007143 0 0 0 -1.014661,-0.669348 1.1087612,1.1087612 0 0 0 -0.148913,-0.0099 v 0 a 1.4794392,1.4794392 0 0 0 -1.395156,1.360789 z M 23.775048,47.112605 a 0.61616025,0.61616025 0 0 0 -0.170191,0.44514 0.66034704,0.66034704 0 0 0 0.52615,0.62107 h 0.009 a 0.40913696,0.40913696 0 0 0 0.276579,-0.145665 0.8526414,0.8526414 0 0 0 0.24058,-0.568703 0.46232475,0.46232475 0 0 0 -0.196385,-0.353494 0.69225973,0.69225973 0 0 0 -0.378861,-0.136666 H 24.068 a 0.40913696,0.40913696 0 0 0 -0.295383,0.134192 z M 41.147002,46.88922 a 0.75035718,0.75035718 0 0 0 -0.532694,0.667711 0.50405672,0.50405672 0 0 0 0.472143,0.498331 0.40913696,0.40913696 0 0 0 0.06055,-0.004 0.72908205,0.72908205 0 0 0 0.499968,-0.672623 0.48114506,0.48114506 0 0 0 -0.438596,-0.490964 0.35185777,0.35185777 0 0 0 -0.06383,-0.0025 z m 8.856997,15.377822 a 0.82318354,0.82318354 0 0 1 0.75936,-0.874736 0.82318354,0.82318354 0 0 1 0.758538,0.874736 0.82318354,0.82318354 0 0 1 -0.758538,0.873917 0.82318354,0.82318354 0 0 1 -0.763451,-0.878008 z m -18.095306,-6.96188 c -0.106389,-0.195582 0.03519,-0.409138 0.213581,-0.284744 a 3.7174184,3.7174184 0 0 0 4.493141,0 c 0.178387,-0.125192 0.320762,0.08919 0.214386,0.284744 A 2.8811424,2.8811424 0 0 1 34.369254,56.678226 2.918783,2.918783 0 0 1 31.907066,55.30107 Z M 9.4626191,42.738927 c -0.159552,-0.271662 -0.306856,-0.556424 -0.445959,-0.83382 a 2.1275122,2.1275122 0 0 0 -1.238047,-1.239685 c 0.556424,-0.572791 1.145581,-1.096488 1.631638,-1.704465 a 4.2059278,4.2059278 0 0 1 3.4293859,-1.759288 1.0359348,1.0359348 0 0 0 0.252859,-0.06136 c 0.06464,-0.08183 0.130109,-0.154665 0.19555,-0.231581 A 4.1666506,4.1666506 0 0 1 12.674342,36.574874 4.1568313,4.1568313 0 0 1 11.037794,32.82227 3.1208966,3.1208966 0 0 0 10.864325,30.766764 c 0.741354,-0.313398 1.486801,-0.619432 2.227339,-0.943468 a 4.7689004,4.7689004 0 0 1 4.263209,0.350222 c -3.25755,4.228021 -4.991473,8.93064 -4.549605,14.357434 A 3.8164296,3.8164296 0 0 1 9.4609831,42.735658 Z M 26.155407,42.238963 c 1.831298,-0.09 3.292736,0.481962 3.174085,0.989292 -0.07036,0.345312 -0.689806,0.191469 -1.548992,0.03764 a 7.674591,7.674591 0 0 0 -2.147151,-0.144026 13.308407,13.308407 0 0 0 -3.564402,0.876372 c 0.738083,-0.985201 2.601295,-1.689737 4.081552,-1.762563 z m 12.790439,1.112035 -0.09575,-0.306021 a 6.8530439,6.8530439 0 0 1 1.321513,-0.779816 5.8833895,5.8833895 0 0 1 5.448884,1.003204 2.8402287,2.8402287 0 0 1 0.270023,0.293774 c -2.395068,-0.732355 -4.671503,-0.486873 -6.948762,-0.214385 z m -13.596437,-5.587174 -3.297644,1.138218 c 0.372313,-1.116127 2.290349,-1.855026 3.293552,-1.145585 z m 16.347473,-0.01485 c 0.881284,-0.718447 2.664302,-0.316673 3.690416,0.854278 z"
       fill="#0005"
       style="fill:#000000;stroke-width:0.818273" /><text
       xml:space="preserve"
       style="font-size:3.175px;text-align:start;writing-mode:lr-tb;direction:ltr;text-anchor:start;fill:#000000;stroke-width:0.264583"
       x="33.097015"
       y="83.512917"
       id="text1"><tspan
         id="tspan1"
         style="font-style:normal;font-variant:normal;font-weight:normal;font-stretch:normal;font-family: 'Troubleside', sans-serif; text-transform: uppercase;text-align:center;text-anchor:middle;fill:#000000;stroke-width:0.264583"
         x="33.097015"
         y="83.512917"
         dx="0">Waiting for the pixels to align</tspan></text></g></svg>
