<svg xmlns="http://www.w3.org/2000/svg" viewBox="0 0 896 896">
<g fill="#0004"><circle  transform="rotate(0, 0, 0) scale(1)" cx="0" cy="0" r="20"></circle><circle  transform="rotate(0, 40, 0) scale(1)" cx="40" cy="0" r="20"></circle><circle  transform="rotate(0, 80, 0) scale(1)" cx="80" cy="0" r="20"></circle><circle  transform="rotate(0, 120, 0) scale(1)" cx="120" cy="0" r="20"></circle><circle  transform="rotate(0, 160, 0) scale(1)" cx="160" cy="0" r="20"></circle><circle  transform="rotate(0, 200, 0) scale(1)" cx="200" cy="0" r="20"></circle><circle  transform="rotate(0, 240, 0) scale(1)" cx="240" cy="0" r="20"></circle><circle  transform="rotate(0, 280, 0) scale(1)" cx="280" cy="0" r="20"></circle><circle  transform="rotate(0, 320, 0) scale(1)" cx="320" cy="0" r="20"></circle><circle  transform="rotate(0, 360, 0) scale(1)" cx="360" cy="0" r="20"></circle><circle  transform="rotate(0, 400, 0) scale(1)" cx="400" cy="0" r="20"></circle><circle  transform="rotate(0, 440, 0) scale(1)" cx="440" cy="0" r="20"></circle><circle  transform="rotate(0, 480, 0) scale(1)" cx="480" cy="0" r="20"></circle><circle  transform="rotate(0, 520, 0) scale(1)" cx="520" cy="0" r="20"></circle><circle  transform="rotate(0, 560, 0) scale(1)" cx="560" cy="0" r="20"></circle><circle  transform="rotate(0, 600, 0) scale(1)" cx="600" cy="0" r="20"></circle><circle  transform="rotate(0, 640, 0) scale(1)" cx="640" cy="0" r="20"></circle><circle  transform="rotate(0, 680, 0) scale(1)" cx="680" cy="0" r="20"></circle><circle  transform="rotate(0, 720, 0) scale(1)" cx="720" cy="0" r="20"></circle><circle  transform="rotate(0, 760, 0) scale(1)" cx="760" cy="0" r="20"></circle><circle  transform="rotate(0, 800, 0) scale(1)" cx="800" cy="0" r="20"></circle><circle  transform="rotate(0, 840, 0) scale(1)" cx="840" cy="0" r="20"></circle><circle  transform="rotate(0, 880, 0) scale(1)" cx="880" cy="0" r="20"></circle><circle  transform="rotate(0, 0, 40) scale(1)" cx="0" cy="40" r="20"></circle><circle  transform="rotate(0, 40, 40) scale(1)" cx="40" cy="40" r="20"></circle><circle  transform="rotate(0, 80, 40) scale(1)" cx="80" cy="40" r="20"></circle><circle  transform="rotate(0, 120, 40) scale(1)" cx="120" cy="40" r="20"></circle><circle  transform="rotate(0, 160, 40) scale(1)" cx="160" cy="40" r="20"></circle><circle  transform="rotate(0, 200, 40) scale(1)" cx="200" cy="40" r="20"></circle><circle  transform="rotate(0, 240, 40) scale(1)" cx="240" cy="40" r="20"></circle><circle  transform="rotate(0, 280, 40) scale(1)" cx="280" cy="40" r="20"></circle><circle  transform="rotate(0, 320, 40) scale(1)" cx="320" cy="40" r="20"></circle><circle  transform="rotate(0, 360, 40) scale(1)" cx="360" cy="40" r="20"></circle><circle  transform="rotate(0, 400, 40) scale(1)" cx="400" cy="40" r="20"></circle><circle  transform="rotate(0, 440, 40) scale(1)" cx="440" cy="40" r="20"></circle><circle  transform="rotate(0, 480, 40) scale(1)" cx="480" cy="40" r="20"></circle><circle  transform="rotate(0, 520, 40) scale(1)" cx="520" cy="40" r="20"></circle><circle  transform="rotate(0, 560, 40) scale(1)" cx="560" cy="40" r="20"></circle><circle  transform="rotate(0, 600, 40) scale(1)" cx="600" cy="40" r="20"></circle><circle  transform="rotate(0, 640, 40) scale(1)" cx="640" cy="40" r="20"></circle><circle  transform="rotate(0, 680, 40) scale(1)" cx="680" cy="40" r="20"></circle><circle  transform="rotate(0, 720, 40) scale(1)" cx="720" cy="40" r="20"></circle><circle  transform="rotate(0, 760, 40) scale(1)" cx="760" cy="40" r="20"></circle><circle  transform="rotate(0, 800, 40) scale(1)" cx="800" cy="40" r="20"></circle><circle  transform="rotate(0, 840, 40) scale(1)" cx="840" cy="40" r="20"></circle><circle  transform="rotate(0, 880, 40) scale(1)" cx="880" cy="40" r="20"></circle><circle  transform="rotate(0, 0, 80) scale(1)" cx="0" cy="80" r="20"></circle><circle  transform="rotate(0, 40, 80) scale(1)" cx="40" cy="80" r="20"></circle><circle  transform="rotate(0, 80, 80) scale(1)" cx="80" cy="80" r="20"></circle><circle  transform="rotate(0, 120, 80) scale(1)" cx="120" cy="80" r="20"></circle><circle  transform="rotate(0, 160, 80) scale(1)" cx="160" cy="80" r="20"></circle><circle  transform="rotate(0, 200, 80) scale(1)" cx="200" cy="80" r="20"></circle><circle  transform="rotate(0, 240, 80) scale(1)" cx="240" cy="80" r="20"></circle><circle  transform="rotate(0, 280, 80) scale(1)" cx="280" cy="80" r="20"></circle><circle  transform="rotate(0, 320, 80) scale(1)" cx="320" cy="80" r="20"></circle><circle  transform="rotate(0, 360, 80) scale(1)" cx="360" cy="80" r="20"></circle><circle  transform="rotate(0, 400, 80) scale(1)" cx="400" cy="80" r="20"></circle><circle  transform="rotate(0, 440, 80) scale(1)" cx="440" cy="80" r="20"></circle><circle  transform="rotate(0, 480, 80) scale(1)" cx="480" cy="80" r="20"></circle><circle  transform="rotate(0, 520, 80) scale(1)" cx="520" cy="80" r="20"></circle><circle  transform="rotate(0, 560, 80) scale(1)" cx="560" cy="80" r="20"></circle><circle  transform="rotate(0, 600, 80) scale(1)" cx="600" cy="80" r="20"></circle><circle  transform="rotate(0, 640, 80) scale(1)" cx="640" cy="80" r="20"></circle><circle  transform="rotate(0, 680, 80) scale(1)" cx="680" cy="80" r="20"></circle><circle  transform="rotate(0, 720, 80) scale(1)" cx="720" cy="80" r="20"></circle><circle  transform="rotate(0, 760, 80) scale(1)" cx="760" cy="80" r="20"></circle><circle  transform="rotate(0, 800, 80) scale(1)" cx="800" cy="80" r="20"></circle><circle  transform="rotate(0, 840, 80) scale(1)" cx="840" cy="80" r="20"></circle><circle  transform="rotate(0, 880, 80) scale(1)" cx="880" cy="80" r="20"></circle><circle  transform="rotate(0, 0, 120) scale(1)" cx="0" cy="120" r="20"></circle><circle  transform="rotate(0, 40, 120) scale(1)" cx="40" cy="120" r="20"></circle><circle  transform="rotate(0, 80, 120) scale(1)" cx="80" cy="120" r="20"></circle><circle  transform="rotate(0, 120, 120) scale(1)" cx="120" cy="120" r="20"></circle><circle  transform="rotate(0, 160, 120) scale(1)" cx="160" cy="120" r="20"></circle><circle  transform="rotate(0, 200, 120) scale(1)" cx="200" cy="120" r="20"></circle><circle  transform="rotate(0, 240, 120) scale(1)" cx="240" cy="120" r="20"></circle><circle  transform="rotate(0, 280, 120) scale(1)" cx="280" cy="120" r="20"></circle><circle  transform="rotate(0, 320, 120) scale(1)" cx="320" cy="120" r="20"></circle><circle  transform="rotate(0, 360, 120) scale(1)" cx="360" cy="120" r="20"></circle><circle  transform="rotate(0, 400, 120) scale(1)" cx="400" cy="120" r="20"></circle><circle  transform="rotate(0, 440, 120) scale(1)" cx="440" cy="120" r="20"></circle><circle  transform="rotate(0, 480, 120) scale(1)" cx="480" cy="120" r="20"></circle><circle  transform="rotate(0, 520, 120) scale(1)" cx="520" cy="120" r="20"></circle><circle  transform="rotate(0, 560, 120) scale(1)" cx="560" cy="120" r="20"></circle><circle  transform="rotate(0, 600, 120) scale(1)" cx="600" cy="120" r="20"></circle><circle  transform="rotate(0, 640, 120) scale(1)" cx="640" cy="120" r="20"></circle><circle  transform="rotate(0, 680, 120) scale(1)" cx="680" cy="120" r="20"></circle><circle  transform="rotate(0, 720, 120) scale(1)" cx="720" cy="120" r="20"></circle><circle  transform="rotate(0, 760, 120) scale(1)" cx="760" cy="120" r="20"></circle><circle  transform="rotate(0, 800, 120) scale(1)" cx="800" cy="120" r="20"></circle><circle  transform="rotate(0, 840, 120) scale(1)" cx="840" cy="120" r="20"></circle><circle  transform="rotate(0, 880, 120) scale(1)" cx="880" cy="120" r="20"></circle><circle  transform="rotate(0, 0, 160) scale(1)" cx="0" cy="160" r="20"></circle><circle  transform="rotate(0, 40, 160) scale(1)" cx="40" cy="160" r="20"></circle><circle  transform="rotate(0, 80, 160) scale(1)" cx="80" cy="160" r="20"></circle><circle  transform="rotate(0, 120, 160) scale(1)" cx="120" cy="160" r="20"></circle><circle  transform="rotate(0, 160, 160) scale(1)" cx="160" cy="160" r="20"></circle><circle  transform="rotate(0, 200, 160) scale(1)" cx="200" cy="160" r="20"></circle><circle  transform="rotate(0, 240, 160) scale(1)" cx="240" cy="160" r="20"></circle><circle  transform="rotate(0, 280, 160) scale(1)" cx="280" cy="160" r="20"></circle><circle  transform="rotate(0, 320, 160) scale(1)" cx="320" cy="160" r="20"></circle><circle  transform="rotate(0, 360, 160) scale(1)" cx="360" cy="160" r="20"></circle><circle  transform="rotate(0, 400, 160) scale(1)" cx="400" cy="160" r="20"></circle><circle  transform="rotate(0, 440, 160) scale(1)" cx="440" cy="160" r="20"></circle><circle  transform="rotate(0, 480, 160) scale(1)" cx="480" cy="160" r="20"></circle><circle  transform="rotate(0, 520, 160) scale(1)" cx="520" cy="160" r="20"></circle><circle  transform="rotate(0, 560, 160) scale(1)" cx="560" cy="160" r="20"></circle><circle  transform="rotate(0, 600, 160) scale(1)" cx="600" cy="160" r="20"></circle><circle  transform="rotate(0, 640, 160) scale(1)" cx="640" cy="160" r="20"></circle><circle  transform="rotate(0, 680, 160) scale(1)" cx="680" cy="160" r="20"></circle><circle  transform="rotate(0, 720, 160) scale(1)" cx="720" cy="160" r="20"></circle><circle  transform="rotate(0, 760, 160) scale(1)" cx="760" cy="160" r="20"></circle><circle  transform="rotate(0, 800, 160) scale(1)" cx="800" cy="160" r="20"></circle><circle  transform="rotate(0, 840, 160) scale(1)" cx="840" cy="160" r="20"></circle><circle  transform="rotate(0, 880, 160) scale(1)" cx="880" cy="160" r="20"></circle><circle  transform="rotate(0, 0, 200) scale(1)" cx="0" cy="200" r="20"></circle><circle  transform="rotate(0, 40, 200) scale(1)" cx="40" cy="200" r="20"></circle><circle  transform="rotate(0, 80, 200) scale(1)" cx="80" cy="200" r="20"></circle><circle  transform="rotate(0, 120, 200) scale(1)" cx="120" cy="200" r="20"></circle><circle  transform="rotate(0, 160, 200) scale(1)" cx="160" cy="200" r="20"></circle><circle  transform="rotate(0, 200, 200) scale(1)" cx="200" cy="200" r="20"></circle><circle  transform="rotate(0, 240, 200) scale(1)" cx="240" cy="200" r="20"></circle><circle  transform="rotate(0, 280, 200) scale(1)" cx="280" cy="200" r="20"></circle><circle  transform="rotate(0, 320, 200) scale(1)" cx="320" cy="200" r="20"></circle><circle  transform="rotate(0, 360, 200) scale(1)" cx="360" cy="200" r="20"></circle><circle  transform="rotate(0, 400, 200) scale(1)" cx="400" cy="200" r="20"></circle><circle  transform="rotate(0, 440, 200) scale(1)" cx="440" cy="200" r="20"></circle><circle  transform="rotate(0, 480, 200) scale(1)" cx="480" cy="200" r="20"></circle><circle  transform="rotate(0, 520, 200) scale(1)" cx="520" cy="200" r="20"></circle><circle  transform="rotate(0, 560, 200) scale(1)" cx="560" cy="200" r="20"></circle><circle  transform="rotate(0, 600, 200) scale(1)" cx="600" cy="200" r="20"></circle><circle  transform="rotate(0, 640, 200) scale(1)" cx="640" cy="200" r="20"></circle><circle  transform="rotate(0, 680, 200) scale(1)" cx="680" cy="200" r="20"></circle><circle  transform="rotate(0, 720, 200) scale(1)" cx="720" cy="200" r="20"></circle><circle  transform="rotate(0, 760, 200) scale(1)" cx="760" cy="200" r="20"></circle><circle  transform="rotate(0, 800, 200) scale(1)" cx="800" cy="200" r="20"></circle><circle  transform="rotate(0, 840, 200) scale(1)" cx="840" cy="200" r="20"></circle><circle  transform="rotate(0, 880, 200) scale(1)" cx="880" cy="200" r="20"></circle><circle  transform="rotate(0, 0, 240) scale(1)" cx="0" cy="240" r="19.464285714285715"></circle><circle  transform="rotate(0, 40, 240) scale(1)" cx="40" cy="240" r="19.464285714285715"></circle><circle  transform="rotate(0, 80, 240) scale(1)" cx="80" cy="240" r="19.464285714285715"></circle><circle  transform="rotate(0, 120, 240) scale(1)" cx="120" cy="240" r="19.464285714285715"></circle><circle  transform="rotate(0, 160, 240) scale(1)" cx="160" cy="240" r="19.464285714285715"></circle><circle  transform="rotate(0, 200, 240) scale(1)" cx="200" cy="240" r="19.464285714285715"></circle><circle  transform="rotate(0, 240, 240) scale(1)" cx="240" cy="240" r="19.464285714285715"></circle><circle  transform="rotate(0, 280, 240) scale(1)" cx="280" cy="240" r="19.464285714285715"></circle><circle  transform="rotate(0, 320, 240) scale(1)" cx="320" cy="240" r="19.464285714285715"></circle><circle  transform="rotate(0, 360, 240) scale(1)" cx="360" cy="240" r="19.464285714285715"></circle><circle  transform="rotate(0, 400, 240) scale(1)" cx="400" cy="240" r="19.464285714285715"></circle><circle  transform="rotate(0, 440, 240) scale(1)" cx="440" cy="240" r="19.464285714285715"></circle><circle  transform="rotate(0, 480, 240) scale(1)" cx="480" cy="240" r="19.464285714285715"></circle><circle  transform="rotate(0, 520, 240) scale(1)" cx="520" cy="240" r="19.464285714285715"></circle><circle  transform="rotate(0, 560, 240) scale(1)" cx="560" cy="240" r="19.464285714285715"></circle><circle  transform="rotate(0, 600, 240) scale(1)" cx="600" cy="240" r="19.464285714285715"></circle><circle  transform="rotate(0, 640, 240) scale(1)" cx="640" cy="240" r="19.464285714285715"></circle><circle  transform="rotate(0, 680, 240) scale(1)" cx="680" cy="240" r="19.464285714285715"></circle><circle  transform="rotate(0, 720, 240) scale(1)" cx="720" cy="240" r="19.464285714285715"></circle><circle  transform="rotate(0, 760, 240) scale(1)" cx="760" cy="240" r="19.464285714285715"></circle><circle  transform="rotate(0, 800, 240) scale(1)" cx="800" cy="240" r="19.464285714285715"></circle><circle  transform="rotate(0, 840, 240) scale(1)" cx="840" cy="240" r="19.464285714285715"></circle><circle  transform="rotate(0, 880, 240) scale(1)" cx="880" cy="240" r="19.464285714285715"></circle><circle  transform="rotate(0, 0, 280) scale(1)" cx="0" cy="280" r="18.125"></circle><circle  transform="rotate(0, 40, 280) scale(1)" cx="40" cy="280" r="18.125"></circle><circle  transform="rotate(0, 80, 280) scale(1)" cx="80" cy="280" r="18.125"></circle><circle  transform="rotate(0, 120, 280) scale(1)" cx="120" cy="280" r="18.125"></circle><circle  transform="rotate(0, 160, 280) scale(1)" cx="160" cy="280" r="18.125"></circle><circle  transform="rotate(0, 200, 280) scale(1)" cx="200" cy="280" r="18.125"></circle><circle  transform="rotate(0, 240, 280) scale(1)" cx="240" cy="280" r="18.125"></circle><circle  transform="rotate(0, 280, 280) scale(1)" cx="280" cy="280" r="18.125"></circle><circle  transform="rotate(0, 320, 280) scale(1)" cx="320" cy="280" r="18.125"></circle><circle  transform="rotate(0, 360, 280) scale(1)" cx="360" cy="280" r="18.125"></circle><circle  transform="rotate(0, 400, 280) scale(1)" cx="400" cy="280" r="18.125"></circle><circle  transform="rotate(0, 440, 280) scale(1)" cx="440" cy="280" r="18.125"></circle><circle  transform="rotate(0, 480, 280) scale(1)" cx="480" cy="280" r="18.125"></circle><circle  transform="rotate(0, 520, 280) scale(1)" cx="520" cy="280" r="18.125"></circle><circle  transform="rotate(0, 560, 280) scale(1)" cx="560" cy="280" r="18.125"></circle><circle  transform="rotate(0, 600, 280) scale(1)" cx="600" cy="280" r="18.125"></circle><circle  transform="rotate(0, 640, 280) scale(1)" cx="640" cy="280" r="18.125"></circle><circle  transform="rotate(0, 680, 280) scale(1)" cx="680" cy="280" r="18.125"></circle><circle  transform="rotate(0, 720, 280) scale(1)" cx="720" cy="280" r="18.125"></circle><circle  transform="rotate(0, 760, 280) scale(1)" cx="760" cy="280" r="18.125"></circle><circle  transform="rotate(0, 800, 280) scale(1)" cx="800" cy="280" r="18.125"></circle><circle  transform="rotate(0, 840, 280) scale(1)" cx="840" cy="280" r="18.125"></circle><circle  transform="rotate(0, 880, 280) scale(1)" cx="880" cy="280" r="18.125"></circle><circle  transform="rotate(0, 0, 320) scale(1)" cx="0" cy="320" r="16.785714285714285"></circle><circle  transform="rotate(0, 40, 320) scale(1)" cx="40" cy="320" r="16.785714285714285"></circle><circle  transform="rotate(0, 80, 320) scale(1)" cx="80" cy="320" r="16.785714285714285"></circle><circle  transform="rotate(0, 120, 320) scale(1)" cx="120" cy="320" r="16.785714285714285"></circle><circle  transform="rotate(0, 160, 320) scale(1)" cx="160" cy="320" r="16.785714285714285"></circle><circle  transform="rotate(0, 200, 320) scale(1)" cx="200" cy="320" r="16.785714285714285"></circle><circle  transform="rotate(0, 240, 320) scale(1)" cx="240" cy="320" r="16.785714285714285"></circle><circle  transform="rotate(0, 280, 320) scale(1)" cx="280" cy="320" r="16.785714285714285"></circle><circle  transform="rotate(0, 320, 320) scale(1)" cx="320" cy="320" r="16.785714285714285"></circle><circle  transform="rotate(0, 360, 320) scale(1)" cx="360" cy="320" r="16.785714285714285"></circle><circle  transform="rotate(0, 400, 320) scale(1)" cx="400" cy="320" r="16.785714285714285"></circle><circle  transform="rotate(0, 440, 320) scale(1)" cx="440" cy="320" r="16.785714285714285"></circle><circle  transform="rotate(0, 480, 320) scale(1)" cx="480" cy="320" r="16.785714285714285"></circle><circle  transform="rotate(0, 520, 320) scale(1)" cx="520" cy="320" r="16.785714285714285"></circle><circle  transform="rotate(0, 560, 320) scale(1)" cx="560" cy="320" r="16.785714285714285"></circle><circle  transform="rotate(0, 600, 320) scale(1)" cx="600" cy="320" r="16.785714285714285"></circle><circle  transform="rotate(0, 640, 320) scale(1)" cx="640" cy="320" r="16.785714285714285"></circle><circle  transform="rotate(0, 680, 320) scale(1)" cx="680" cy="320" r="16.785714285714285"></circle><circle  transform="rotate(0, 720, 320) scale(1)" cx="720" cy="320" r="16.785714285714285"></circle><circle  transform="rotate(0, 760, 320) scale(1)" cx="760" cy="320" r="16.785714285714285"></circle><circle  transform="rotate(0, 800, 320) scale(1)" cx="800" cy="320" r="16.785714285714285"></circle><circle  transform="rotate(0, 840, 320) scale(1)" cx="840" cy="320" r="16.785714285714285"></circle><circle  transform="rotate(0, 880, 320) scale(1)" cx="880" cy="320" r="16.785714285714285"></circle><circle  transform="rotate(0, 0, 360) scale(1)" cx="0" cy="360" r="15.446428571428571"></circle><circle  transform="rotate(0, 40, 360) scale(1)" cx="40" cy="360" r="15.446428571428571"></circle><circle  transform="rotate(0, 80, 360) scale(1)" cx="80" cy="360" r="15.446428571428571"></circle><circle  transform="rotate(0, 120, 360) scale(1)" cx="120" cy="360" r="15.446428571428571"></circle><circle  transform="rotate(0, 160, 360) scale(1)" cx="160" cy="360" r="15.446428571428571"></circle><circle  transform="rotate(0, 200, 360) scale(1)" cx="200" cy="360" r="15.446428571428571"></circle><circle  transform="rotate(0, 240, 360) scale(1)" cx="240" cy="360" r="15.446428571428571"></circle><circle  transform="rotate(0, 280, 360) scale(1)" cx="280" cy="360" r="15.446428571428571"></circle><circle  transform="rotate(0, 320, 360) scale(1)" cx="320" cy="360" r="15.446428571428571"></circle><circle  transform="rotate(0, 360, 360) scale(1)" cx="360" cy="360" r="15.446428571428571"></circle><circle  transform="rotate(0, 400, 360) scale(1)" cx="400" cy="360" r="15.446428571428571"></circle><circle  transform="rotate(0, 440, 360) scale(1)" cx="440" cy="360" r="15.446428571428571"></circle><circle  transform="rotate(0, 480, 360) scale(1)" cx="480" cy="360" r="15.446428571428571"></circle><circle  transform="rotate(0, 520, 360) scale(1)" cx="520" cy="360" r="15.446428571428571"></circle><circle  transform="rotate(0, 560, 360) scale(1)" cx="560" cy="360" r="15.446428571428571"></circle><circle  transform="rotate(0, 600, 360) scale(1)" cx="600" cy="360" r="15.446428571428571"></circle><circle  transform="rotate(0, 640, 360) scale(1)" cx="640" cy="360" r="15.446428571428571"></circle><circle  transform="rotate(0, 680, 360) scale(1)" cx="680" cy="360" r="15.446428571428571"></circle><circle  transform="rotate(0, 720, 360) scale(1)" cx="720" cy="360" r="15.446428571428571"></circle><circle  transform="rotate(0, 760, 360) scale(1)" cx="760" cy="360" r="15.446428571428571"></circle><circle  transform="rotate(0, 800, 360) scale(1)" cx="800" cy="360" r="15.446428571428571"></circle><circle  transform="rotate(0, 840, 360) scale(1)" cx="840" cy="360" r="15.446428571428571"></circle><circle  transform="rotate(0, 880, 360) scale(1)" cx="880" cy="360" r="15.446428571428571"></circle><circle  transform="rotate(0, 0, 400) scale(1)" cx="0" cy="400" r="14.107142857142856"></circle><circle  transform="rotate(0, 40, 400) scale(1)" cx="40" cy="400" r="14.107142857142856"></circle><circle  transform="rotate(0, 80, 400) scale(1)" cx="80" cy="400" r="14.107142857142856"></circle><circle  transform="rotate(0, 120, 400) scale(1)" cx="120" cy="400" r="14.107142857142856"></circle><circle  transform="rotate(0, 160, 400) scale(1)" cx="160" cy="400" r="14.107142857142856"></circle><circle  transform="rotate(0, 200, 400) scale(1)" cx="200" cy="400" r="14.107142857142856"></circle><circle  transform="rotate(0, 240, 400) scale(1)" cx="240" cy="400" r="14.107142857142856"></circle><circle  transform="rotate(0, 280, 400) scale(1)" cx="280" cy="400" r="14.107142857142856"></circle><circle  transform="rotate(0, 320, 400) scale(1)" cx="320" cy="400" r="14.107142857142856"></circle><circle  transform="rotate(0, 360, 400) scale(1)" cx="360" cy="400" r="14.107142857142856"></circle><circle  transform="rotate(0, 400, 400) scale(1)" cx="400" cy="400" r="14.107142857142856"></circle><circle  transform="rotate(0, 440, 400) scale(1)" cx="440" cy="400" r="14.107142857142856"></circle><circle  transform="rotate(0, 480, 400) scale(1)" cx="480" cy="400" r="14.107142857142856"></circle><circle  transform="rotate(0, 520, 400) scale(1)" cx="520" cy="400" r="14.107142857142856"></circle><circle  transform="rotate(0, 560, 400) scale(1)" cx="560" cy="400" r="14.107142857142856"></circle><circle  transform="rotate(0, 600, 400) scale(1)" cx="600" cy="400" r="14.107142857142856"></circle><circle  transform="rotate(0, 640, 400) scale(1)" cx="640" cy="400" r="14.107142857142856"></circle><circle  transform="rotate(0, 680, 400) scale(1)" cx="680" cy="400" r="14.107142857142856"></circle><circle  transform="rotate(0, 720, 400) scale(1)" cx="720" cy="400" r="14.107142857142856"></circle><circle  transform="rotate(0, 760, 400) scale(1)" cx="760" cy="400" r="14.107142857142856"></circle><circle  transform="rotate(0, 800, 400) scale(1)" cx="800" cy="400" r="14.107142857142856"></circle><circle  transform="rotate(0, 840, 400) scale(1)" cx="840" cy="400" r="14.107142857142856"></circle><circle  transform="rotate(0, 880, 400) scale(1)" cx="880" cy="400" r="14.107142857142856"></circle><circle  transform="rotate(0, 0, 440) scale(1)" cx="0" cy="440" r="12.767857142857142"></circle><circle  transform="rotate(0, 40, 440) scale(1)" cx="40" cy="440" r="12.767857142857142"></circle><circle  transform="rotate(0, 80, 440) scale(1)" cx="80" cy="440" r="12.767857142857142"></circle><circle  transform="rotate(0, 120, 440) scale(1)" cx="120" cy="440" r="12.767857142857142"></circle><circle  transform="rotate(0, 160, 440) scale(1)" cx="160" cy="440" r="12.767857142857142"></circle><circle  transform="rotate(0, 200, 440) scale(1)" cx="200" cy="440" r="12.767857142857142"></circle><circle  transform="rotate(0, 240, 440) scale(1)" cx="240" cy="440" r="12.767857142857142"></circle><circle  transform="rotate(0, 280, 440) scale(1)" cx="280" cy="440" r="12.767857142857142"></circle><circle  transform="rotate(0, 320, 440) scale(1)" cx="320" cy="440" r="12.767857142857142"></circle><circle  transform="rotate(0, 360, 440) scale(1)" cx="360" cy="440" r="12.767857142857142"></circle><circle  transform="rotate(0, 400, 440) scale(1)" cx="400" cy="440" r="12.767857142857142"></circle><circle  transform="rotate(0, 440, 440) scale(1)" cx="440" cy="440" r="12.767857142857142"></circle><circle  transform="rotate(0, 480, 440) scale(1)" cx="480" cy="440" r="12.767857142857142"></circle><circle  transform="rotate(0, 520, 440) scale(1)" cx="520" cy="440" r="12.767857142857142"></circle><circle  transform="rotate(0, 560, 440) scale(1)" cx="560" cy="440" r="12.767857142857142"></circle><circle  transform="rotate(0, 600, 440) scale(1)" cx="600" cy="440" r="12.767857142857142"></circle><circle  transform="rotate(0, 640, 440) scale(1)" cx="640" cy="440" r="12.767857142857142"></circle><circle  transform="rotate(0, 680, 440) scale(1)" cx="680" cy="440" r="12.767857142857142"></circle><circle  transform="rotate(0, 720, 440) scale(1)" cx="720" cy="440" r="12.767857142857142"></circle><circle  transform="rotate(0, 760, 440) scale(1)" cx="760" cy="440" r="12.767857142857142"></circle><circle  transform="rotate(0, 800, 440) scale(1)" cx="800" cy="440" r="12.767857142857142"></circle><circle  transform="rotate(0, 840, 440) scale(1)" cx="840" cy="440" r="12.767857142857142"></circle><circle  transform="rotate(0, 880, 440) scale(1)" cx="880" cy="440" r="12.767857142857142"></circle><circle  transform="rotate(0, 0, 480) scale(1)" cx="0" cy="480" r="11.428571428571429"></circle><circle  transform="rotate(0, 40, 480) scale(1)" cx="40" cy="480" r="11.428571428571429"></circle><circle  transform="rotate(0, 80, 480) scale(1)" cx="80" cy="480" r="11.428571428571429"></circle><circle  transform="rotate(0, 120, 480) scale(1)" cx="120" cy="480" r="11.428571428571429"></circle><circle  transform="rotate(0, 160, 480) scale(1)" cx="160" cy="480" r="11.428571428571429"></circle><circle  transform="rotate(0, 200, 480) scale(1)" cx="200" cy="480" r="11.428571428571429"></circle><circle  transform="rotate(0, 240, 480) scale(1)" cx="240" cy="480" r="11.428571428571429"></circle><circle  transform="rotate(0, 280, 480) scale(1)" cx="280" cy="480" r="11.428571428571429"></circle><circle  transform="rotate(0, 320, 480) scale(1)" cx="320" cy="480" r="11.428571428571429"></circle><circle  transform="rotate(0, 360, 480) scale(1)" cx="360" cy="480" r="11.428571428571429"></circle><circle  transform="rotate(0, 400, 480) scale(1)" cx="400" cy="480" r="11.428571428571429"></circle><circle  transform="rotate(0, 440, 480) scale(1)" cx="440" cy="480" r="11.428571428571429"></circle><circle  transform="rotate(0, 480, 480) scale(1)" cx="480" cy="480" r="11.428571428571429"></circle><circle  transform="rotate(0, 520, 480) scale(1)" cx="520" cy="480" r="11.428571428571429"></circle><circle  transform="rotate(0, 560, 480) scale(1)" cx="560" cy="480" r="11.428571428571429"></circle><circle  transform="rotate(0, 600, 480) scale(1)" cx="600" cy="480" r="11.428571428571429"></circle><circle  transform="rotate(0, 640, 480) scale(1)" cx="640" cy="480" r="11.428571428571429"></circle><circle  transform="rotate(0, 680, 480) scale(1)" cx="680" cy="480" r="11.428571428571429"></circle><circle  transform="rotate(0, 720, 480) scale(1)" cx="720" cy="480" r="11.428571428571429"></circle><circle  transform="rotate(0, 760, 480) scale(1)" cx="760" cy="480" r="11.428571428571429"></circle><circle  transform="rotate(0, 800, 480) scale(1)" cx="800" cy="480" r="11.428571428571429"></circle><circle  transform="rotate(0, 840, 480) scale(1)" cx="840" cy="480" r="11.428571428571429"></circle><circle  transform="rotate(0, 880, 480) scale(1)" cx="880" cy="480" r="11.428571428571429"></circle><circle  transform="rotate(0, 0, 520) scale(1)" cx="0" cy="520" r="10.089285714285715"></circle><circle  transform="rotate(0, 40, 520) scale(1)" cx="40" cy="520" r="10.089285714285715"></circle><circle  transform="rotate(0, 80, 520) scale(1)" cx="80" cy="520" r="10.089285714285715"></circle><circle  transform="rotate(0, 120, 520) scale(1)" cx="120" cy="520" r="10.089285714285715"></circle><circle  transform="rotate(0, 160, 520) scale(1)" cx="160" cy="520" r="10.089285714285715"></circle><circle  transform="rotate(0, 200, 520) scale(1)" cx="200" cy="520" r="10.089285714285715"></circle><circle  transform="rotate(0, 240, 520) scale(1)" cx="240" cy="520" r="10.089285714285715"></circle><circle  transform="rotate(0, 280, 520) scale(1)" cx="280" cy="520" r="10.089285714285715"></circle><circle  transform="rotate(0, 320, 520) scale(1)" cx="320" cy="520" r="10.089285714285715"></circle><circle  transform="rotate(0, 360, 520) scale(1)" cx="360" cy="520" r="10.089285714285715"></circle><circle  transform="rotate(0, 400, 520) scale(1)" cx="400" cy="520" r="10.089285714285715"></circle><circle  transform="rotate(0, 440, 520) scale(1)" cx="440" cy="520" r="10.089285714285715"></circle><circle  transform="rotate(0, 480, 520) scale(1)" cx="480" cy="520" r="10.089285714285715"></circle><circle  transform="rotate(0, 520, 520) scale(1)" cx="520" cy="520" r="10.089285714285715"></circle><circle  transform="rotate(0, 560, 520) scale(1)" cx="560" cy="520" r="10.089285714285715"></circle><circle  transform="rotate(0, 600, 520) scale(1)" cx="600" cy="520" r="10.089285714285715"></circle><circle  transform="rotate(0, 640, 520) scale(1)" cx="640" cy="520" r="10.089285714285715"></circle><circle  transform="rotate(0, 680, 520) scale(1)" cx="680" cy="520" r="10.089285714285715"></circle><circle  transform="rotate(0, 720, 520) scale(1)" cx="720" cy="520" r="10.089285714285715"></circle><circle  transform="rotate(0, 760, 520) scale(1)" cx="760" cy="520" r="10.089285714285715"></circle><circle  transform="rotate(0, 800, 520) scale(1)" cx="800" cy="520" r="10.089285714285715"></circle><circle  transform="rotate(0, 840, 520) scale(1)" cx="840" cy="520" r="10.089285714285715"></circle><circle  transform="rotate(0, 880, 520) scale(1)" cx="880" cy="520" r="10.089285714285715"></circle><circle  transform="rotate(0, 0, 560) scale(1)" cx="0" cy="560" r="8.75"></circle><circle  transform="rotate(0, 40, 560) scale(1)" cx="40" cy="560" r="8.75"></circle><circle  transform="rotate(0, 80, 560) scale(1)" cx="80" cy="560" r="8.75"></circle><circle  transform="rotate(0, 120, 560) scale(1)" cx="120" cy="560" r="8.75"></circle><circle  transform="rotate(0, 160, 560) scale(1)" cx="160" cy="560" r="8.75"></circle><circle  transform="rotate(0, 200, 560) scale(1)" cx="200" cy="560" r="8.75"></circle><circle  transform="rotate(0, 240, 560) scale(1)" cx="240" cy="560" r="8.75"></circle><circle  transform="rotate(0, 280, 560) scale(1)" cx="280" cy="560" r="8.75"></circle><circle  transform="rotate(0, 320, 560) scale(1)" cx="320" cy="560" r="8.75"></circle><circle  transform="rotate(0, 360, 560) scale(1)" cx="360" cy="560" r="8.75"></circle><circle  transform="rotate(0, 400, 560) scale(1)" cx="400" cy="560" r="8.75"></circle><circle  transform="rotate(0, 440, 560) scale(1)" cx="440" cy="560" r="8.75"></circle><circle  transform="rotate(0, 480, 560) scale(1)" cx="480" cy="560" r="8.75"></circle><circle  transform="rotate(0, 520, 560) scale(1)" cx="520" cy="560" r="8.75"></circle><circle  transform="rotate(0, 560, 560) scale(1)" cx="560" cy="560" r="8.75"></circle><circle  transform="rotate(0, 600, 560) scale(1)" cx="600" cy="560" r="8.75"></circle><circle  transform="rotate(0, 640, 560) scale(1)" cx="640" cy="560" r="8.75"></circle><circle  transform="rotate(0, 680, 560) scale(1)" cx="680" cy="560" r="8.75"></circle><circle  transform="rotate(0, 720, 560) scale(1)" cx="720" cy="560" r="8.75"></circle><circle  transform="rotate(0, 760, 560) scale(1)" cx="760" cy="560" r="8.75"></circle><circle  transform="rotate(0, 800, 560) scale(1)" cx="800" cy="560" r="8.75"></circle><circle  transform="rotate(0, 840, 560) scale(1)" cx="840" cy="560" r="8.75"></circle><circle  transform="rotate(0, 880, 560) scale(1)" cx="880" cy="560" r="8.75"></circle><circle  transform="rotate(0, 0, 600) scale(1)" cx="0" cy="600" r="7.410714285714286"></circle><circle  transform="rotate(0, 40, 600) scale(1)" cx="40" cy="600" r="7.410714285714286"></circle><circle  transform="rotate(0, 80, 600) scale(1)" cx="80" cy="600" r="7.410714285714286"></circle><circle  transform="rotate(0, 120, 600) scale(1)" cx="120" cy="600" r="7.410714285714286"></circle><circle  transform="rotate(0, 160, 600) scale(1)" cx="160" cy="600" r="7.410714285714286"></circle><circle  transform="rotate(0, 200, 600) scale(1)" cx="200" cy="600" r="7.410714285714286"></circle><circle  transform="rotate(0, 240, 600) scale(1)" cx="240" cy="600" r="7.410714285714286"></circle><circle  transform="rotate(0, 280, 600) scale(1)" cx="280" cy="600" r="7.410714285714286"></circle><circle  transform="rotate(0, 320, 600) scale(1)" cx="320" cy="600" r="7.410714285714286"></circle><circle  transform="rotate(0, 360, 600) scale(1)" cx="360" cy="600" r="7.410714285714286"></circle><circle  transform="rotate(0, 400, 600) scale(1)" cx="400" cy="600" r="7.410714285714286"></circle><circle  transform="rotate(0, 440, 600) scale(1)" cx="440" cy="600" r="7.410714285714286"></circle><circle  transform="rotate(0, 480, 600) scale(1)" cx="480" cy="600" r="7.410714285714286"></circle><circle  transform="rotate(0, 520, 600) scale(1)" cx="520" cy="600" r="7.410714285714286"></circle><circle  transform="rotate(0, 560, 600) scale(1)" cx="560" cy="600" r="7.410714285714286"></circle><circle  transform="rotate(0, 600, 600) scale(1)" cx="600" cy="600" r="7.410714285714286"></circle><circle  transform="rotate(0, 640, 600) scale(1)" cx="640" cy="600" r="7.410714285714286"></circle><circle  transform="rotate(0, 680, 600) scale(1)" cx="680" cy="600" r="7.410714285714286"></circle><circle  transform="rotate(0, 720, 600) scale(1)" cx="720" cy="600" r="7.410714285714286"></circle><circle  transform="rotate(0, 760, 600) scale(1)" cx="760" cy="600" r="7.410714285714286"></circle><circle  transform="rotate(0, 800, 600) scale(1)" cx="800" cy="600" r="7.410714285714286"></circle><circle  transform="rotate(0, 840, 600) scale(1)" cx="840" cy="600" r="7.410714285714286"></circle><circle  transform="rotate(0, 880, 600) scale(1)" cx="880" cy="600" r="7.410714285714286"></circle><circle  transform="rotate(0, 0, 640) scale(1)" cx="0" cy="640" r="6.07142857142857"></circle><circle  transform="rotate(0, 40, 640) scale(1)" cx="40" cy="640" r="6.07142857142857"></circle><circle  transform="rotate(0, 80, 640) scale(1)" cx="80" cy="640" r="6.07142857142857"></circle><circle  transform="rotate(0, 120, 640) scale(1)" cx="120" cy="640" r="6.07142857142857"></circle><circle  transform="rotate(0, 160, 640) scale(1)" cx="160" cy="640" r="6.07142857142857"></circle><circle  transform="rotate(0, 200, 640) scale(1)" cx="200" cy="640" r="6.07142857142857"></circle><circle  transform="rotate(0, 240, 640) scale(1)" cx="240" cy="640" r="6.071428571428572"></circle><circle  transform="rotate(0, 280, 640) scale(1)" cx="280" cy="640" r="6.071428571428572"></circle><circle  transform="rotate(0, 320, 640) scale(1)" cx="320" cy="640" r="6.071428571428572"></circle><circle  transform="rotate(0, 360, 640) scale(1)" cx="360" cy="640" r="6.071428571428572"></circle><circle  transform="rotate(0, 400, 640) scale(1)" cx="400" cy="640" r="6.071428571428572"></circle><circle  transform="rotate(0, 440, 640) scale(1)" cx="440" cy="640" r="6.071428571428572"></circle><circle  transform="rotate(0, 480, 640) scale(1)" cx="480" cy="640" r="6.071428571428572"></circle><circle  transform="rotate(0, 520, 640) scale(1)" cx="520" cy="640" r="6.071428571428572"></circle><circle  transform="rotate(0, 560, 640) scale(1)" cx="560" cy="640" r="6.071428571428572"></circle><circle  transform="rotate(0, 600, 640) scale(1)" cx="600" cy="640" r="6.071428571428572"></circle><circle  transform="rotate(0, 640, 640) scale(1)" cx="640" cy="640" r="6.071428571428572"></circle><circle  transform="rotate(0, 680, 640) scale(1)" cx="680" cy="640" r="6.071428571428572"></circle><circle  transform="rotate(0, 720, 640) scale(1)" cx="720" cy="640" r="6.071428571428572"></circle><circle  transform="rotate(0, 760, 640) scale(1)" cx="760" cy="640" r="6.071428571428572"></circle><circle  transform="rotate(0, 800, 640) scale(1)" cx="800" cy="640" r="6.071428571428572"></circle><circle  transform="rotate(0, 840, 640) scale(1)" cx="840" cy="640" r="6.071428571428572"></circle><circle  transform="rotate(0, 880, 640) scale(1)" cx="880" cy="640" r="6.071428571428572"></circle><circle  transform="rotate(0, 0, 680) scale(1)" cx="0" cy="680" r="5"></circle><circle  transform="rotate(0, 40, 680) scale(1)" cx="40" cy="680" r="5"></circle><circle  transform="rotate(0, 80, 680) scale(1)" cx="80" cy="680" r="5"></circle><circle  transform="rotate(0, 120, 680) scale(1)" cx="120" cy="680" r="5"></circle><circle  transform="rotate(0, 160, 680) scale(1)" cx="160" cy="680" r="5"></circle><circle  transform="rotate(0, 200, 680) scale(1)" cx="200" cy="680" r="5"></circle><circle  transform="rotate(0, 240, 680) scale(1)" cx="240" cy="680" r="5"></circle><circle  transform="rotate(0, 280, 680) scale(1)" cx="280" cy="680" r="5"></circle><circle  transform="rotate(0, 320, 680) scale(1)" cx="320" cy="680" r="5"></circle><circle  transform="rotate(0, 360, 680) scale(1)" cx="360" cy="680" r="5"></circle><circle  transform="rotate(0, 400, 680) scale(1)" cx="400" cy="680" r="5"></circle><circle  transform="rotate(0, 440, 680) scale(1)" cx="440" cy="680" r="5"></circle><circle  transform="rotate(0, 480, 680) scale(1)" cx="480" cy="680" r="5"></circle><circle  transform="rotate(0, 520, 680) scale(1)" cx="520" cy="680" r="5"></circle><circle  transform="rotate(0, 560, 680) scale(1)" cx="560" cy="680" r="5"></circle><circle  transform="rotate(0, 600, 680) scale(1)" cx="600" cy="680" r="5"></circle><circle  transform="rotate(0, 640, 680) scale(1)" cx="640" cy="680" r="5"></circle><circle  transform="rotate(0, 680, 680) scale(1)" cx="680" cy="680" r="5"></circle><circle  transform="rotate(0, 720, 680) scale(1)" cx="720" cy="680" r="5"></circle><circle  transform="rotate(0, 760, 680) scale(1)" cx="760" cy="680" r="5"></circle><circle  transform="rotate(0, 800, 680) scale(1)" cx="800" cy="680" r="5"></circle><circle  transform="rotate(0, 840, 680) scale(1)" cx="840" cy="680" r="5"></circle><circle  transform="rotate(0, 880, 680) scale(1)" cx="880" cy="680" r="5"></circle><circle  transform="rotate(0, 0, 720) scale(1)" cx="0" cy="720" r="5"></circle><circle  transform="rotate(0, 40, 720) scale(1)" cx="40" cy="720" r="5"></circle><circle  transform="rotate(0, 80, 720) scale(1)" cx="80" cy="720" r="5"></circle><circle  transform="rotate(0, 120, 720) scale(1)" cx="120" cy="720" r="5"></circle><circle  transform="rotate(0, 160, 720) scale(1)" cx="160" cy="720" r="5"></circle><circle  transform="rotate(0, 200, 720) scale(1)" cx="200" cy="720" r="5"></circle><circle  transform="rotate(0, 240, 720) scale(1)" cx="240" cy="720" r="5"></circle><circle  transform="rotate(0, 280, 720) scale(1)" cx="280" cy="720" r="5"></circle><circle  transform="rotate(0, 320, 720) scale(1)" cx="320" cy="720" r="5"></circle><circle  transform="rotate(0, 360, 720) scale(1)" cx="360" cy="720" r="5"></circle><circle  transform="rotate(0, 400, 720) scale(1)" cx="400" cy="720" r="5"></circle><circle  transform="rotate(0, 440, 720) scale(1)" cx="440" cy="720" r="5"></circle><circle  transform="rotate(0, 480, 720) scale(1)" cx="480" cy="720" r="5"></circle><circle  transform="rotate(0, 520, 720) scale(1)" cx="520" cy="720" r="5"></circle><circle  transform="rotate(0, 560, 720) scale(1)" cx="560" cy="720" r="5"></circle><circle  transform="rotate(0, 600, 720) scale(1)" cx="600" cy="720" r="5"></circle><circle  transform="rotate(0, 640, 720) scale(1)" cx="640" cy="720" r="5"></circle><circle  transform="rotate(0, 680, 720) scale(1)" cx="680" cy="720" r="5"></circle><circle  transform="rotate(0, 720, 720) scale(1)" cx="720" cy="720" r="5"></circle><circle  transform="rotate(0, 760, 720) scale(1)" cx="760" cy="720" r="5"></circle><circle  transform="rotate(0, 800, 720) scale(1)" cx="800" cy="720" r="5"></circle><circle  transform="rotate(0, 840, 720) scale(1)" cx="840" cy="720" r="5"></circle><circle  transform="rotate(0, 880, 720) scale(1)" cx="880" cy="720" r="5"></circle><circle  transform="rotate(0, 0, 760) scale(1)" cx="0" cy="760" r="5"></circle><circle  transform="rotate(0, 40, 760) scale(1)" cx="40" cy="760" r="5"></circle><circle  transform="rotate(0, 80, 760) scale(1)" cx="80" cy="760" r="5"></circle><circle  transform="rotate(0, 120, 760) scale(1)" cx="120" cy="760" r="5"></circle><circle  transform="rotate(0, 160, 760) scale(1)" cx="160" cy="760" r="5"></circle><circle  transform="rotate(0, 200, 760) scale(1)" cx="200" cy="760" r="5"></circle><circle  transform="rotate(0, 240, 760) scale(1)" cx="240" cy="760" r="5"></circle><circle  transform="rotate(0, 280, 760) scale(1)" cx="280" cy="760" r="5"></circle><circle  transform="rotate(0, 320, 760) scale(1)" cx="320" cy="760" r="5"></circle><circle  transform="rotate(0, 360, 760) scale(1)" cx="360" cy="760" r="5"></circle><circle  transform="rotate(0, 400, 760) scale(1)" cx="400" cy="760" r="5"></circle><circle  transform="rotate(0, 440, 760) scale(1)" cx="440" cy="760" r="5"></circle><circle  transform="rotate(0, 480, 760) scale(1)" cx="480" cy="760" r="5"></circle><circle  transform="rotate(0, 520, 760) scale(1)" cx="520" cy="760" r="5"></circle><circle  transform="rotate(0, 560, 760) scale(1)" cx="560" cy="760" r="5"></circle><circle  transform="rotate(0, 600, 760) scale(1)" cx="600" cy="760" r="5"></circle><circle  transform="rotate(0, 640, 760) scale(1)" cx="640" cy="760" r="5"></circle><circle  transform="rotate(0, 680, 760) scale(1)" cx="680" cy="760" r="5"></circle><circle  transform="rotate(0, 720, 760) scale(1)" cx="720" cy="760" r="5"></circle><circle  transform="rotate(0, 760, 760) scale(1)" cx="760" cy="760" r="5"></circle><circle  transform="rotate(0, 800, 760) scale(1)" cx="800" cy="760" r="5"></circle><circle  transform="rotate(0, 840, 760) scale(1)" cx="840" cy="760" r="5"></circle><circle  transform="rotate(0, 880, 760) scale(1)" cx="880" cy="760" r="5"></circle><circle  transform="rotate(0, 0, 800) scale(1)" cx="0" cy="800" r="5"></circle><circle  transform="rotate(0, 40, 800) scale(1)" cx="40" cy="800" r="5"></circle><circle  transform="rotate(0, 80, 800) scale(1)" cx="80" cy="800" r="5"></circle><circle  transform="rotate(0, 120, 800) scale(1)" cx="120" cy="800" r="5"></circle><circle  transform="rotate(0, 160, 800) scale(1)" cx="160" cy="800" r="5"></circle><circle  transform="rotate(0, 200, 800) scale(1)" cx="200" cy="800" r="5"></circle><circle  transform="rotate(0, 240, 800) scale(1)" cx="240" cy="800" r="5"></circle><circle  transform="rotate(0, 280, 800) scale(1)" cx="280" cy="800" r="5"></circle><circle  transform="rotate(0, 320, 800) scale(1)" cx="320" cy="800" r="5"></circle><circle  transform="rotate(0, 360, 800) scale(1)" cx="360" cy="800" r="5"></circle><circle  transform="rotate(0, 400, 800) scale(1)" cx="400" cy="800" r="5"></circle><circle  transform="rotate(0, 440, 800) scale(1)" cx="440" cy="800" r="5"></circle><circle  transform="rotate(0, 480, 800) scale(1)" cx="480" cy="800" r="5"></circle><circle  transform="rotate(0, 520, 800) scale(1)" cx="520" cy="800" r="5"></circle><circle  transform="rotate(0, 560, 800) scale(1)" cx="560" cy="800" r="5"></circle><circle  transform="rotate(0, 600, 800) scale(1)" cx="600" cy="800" r="5"></circle><circle  transform="rotate(0, 640, 800) scale(1)" cx="640" cy="800" r="5"></circle><circle  transform="rotate(0, 680, 800) scale(1)" cx="680" cy="800" r="5"></circle><circle  transform="rotate(0, 720, 800) scale(1)" cx="720" cy="800" r="5"></circle><circle  transform="rotate(0, 760, 800) scale(1)" cx="760" cy="800" r="5"></circle><circle  transform="rotate(0, 800, 800) scale(1)" cx="800" cy="800" r="5"></circle><circle  transform="rotate(0, 840, 800) scale(1)" cx="840" cy="800" r="5"></circle><circle  transform="rotate(0, 880, 800) scale(1)" cx="880" cy="800" r="5"></circle><circle  transform="rotate(0, 0, 840) scale(1)" cx="0" cy="840" r="5"></circle><circle  transform="rotate(0, 40, 840) scale(1)" cx="40" cy="840" r="5"></circle><circle  transform="rotate(0, 80, 840) scale(1)" cx="80" cy="840" r="5"></circle><circle  transform="rotate(0, 120, 840) scale(1)" cx="120" cy="840" r="5"></circle><circle  transform="rotate(0, 160, 840) scale(1)" cx="160" cy="840" r="5"></circle><circle  transform="rotate(0, 200, 840) scale(1)" cx="200" cy="840" r="5"></circle><circle  transform="rotate(0, 240, 840) scale(1)" cx="240" cy="840" r="5"></circle><circle  transform="rotate(0, 280, 840) scale(1)" cx="280" cy="840" r="5"></circle><circle  transform="rotate(0, 320, 840) scale(1)" cx="320" cy="840" r="5"></circle><circle  transform="rotate(0, 360, 840) scale(1)" cx="360" cy="840" r="5"></circle><circle  transform="rotate(0, 400, 840) scale(1)" cx="400" cy="840" r="5"></circle><circle  transform="rotate(0, 440, 840) scale(1)" cx="440" cy="840" r="5"></circle><circle  transform="rotate(0, 480, 840) scale(1)" cx="480" cy="840" r="5"></circle><circle  transform="rotate(0, 520, 840) scale(1)" cx="520" cy="840" r="5"></circle><circle  transform="rotate(0, 560, 840) scale(1)" cx="560" cy="840" r="5"></circle><circle  transform="rotate(0, 600, 840) scale(1)" cx="600" cy="840" r="5"></circle><circle  transform="rotate(0, 640, 840) scale(1)" cx="640" cy="840" r="5"></circle><circle  transform="rotate(0, 680, 840) scale(1)" cx="680" cy="840" r="5"></circle><circle  transform="rotate(0, 720, 840) scale(1)" cx="720" cy="840" r="5"></circle><circle  transform="rotate(0, 760, 840) scale(1)" cx="760" cy="840" r="5"></circle><circle  transform="rotate(0, 800, 840) scale(1)" cx="800" cy="840" r="5"></circle><circle  transform="rotate(0, 840, 840) scale(1)" cx="840" cy="840" r="5"></circle><circle  transform="rotate(0, 880, 840) scale(1)" cx="880" cy="840" r="5"></circle><circle  transform="rotate(0, 0, 880) scale(1)" cx="0" cy="880" r="5"></circle><circle  transform="rotate(0, 40, 880) scale(1)" cx="40" cy="880" r="5"></circle><circle  transform="rotate(0, 80, 880) scale(1)" cx="80" cy="880" r="5"></circle><circle  transform="rotate(0, 120, 880) scale(1)" cx="120" cy="880" r="5"></circle><circle  transform="rotate(0, 160, 880) scale(1)" cx="160" cy="880" r="5"></circle><circle  transform="rotate(0, 200, 880) scale(1)" cx="200" cy="880" r="5"></circle><circle  transform="rotate(0, 240, 880) scale(1)" cx="240" cy="880" r="5"></circle><circle  transform="rotate(0, 280, 880) scale(1)" cx="280" cy="880" r="5"></circle><circle  transform="rotate(0, 320, 880) scale(1)" cx="320" cy="880" r="5"></circle><circle  transform="rotate(0, 360, 880) scale(1)" cx="360" cy="880" r="5"></circle><circle  transform="rotate(0, 400, 880) scale(1)" cx="400" cy="880" r="5"></circle><circle  transform="rotate(0, 440, 880) scale(1)" cx="440" cy="880" r="5"></circle><circle  transform="rotate(0, 480, 880) scale(1)" cx="480" cy="880" r="5"></circle><circle  transform="rotate(0, 520, 880) scale(1)" cx="520" cy="880" r="5"></circle><circle  transform="rotate(0, 560, 880) scale(1)" cx="560" cy="880" r="5"></circle><circle  transform="rotate(0, 600, 880) scale(1)" cx="600" cy="880" r="5"></circle><circle  transform="rotate(0, 640, 880) scale(1)" cx="640" cy="880" r="5"></circle><circle  transform="rotate(0, 680, 880) scale(1)" cx="680" cy="880" r="5"></circle><circle  transform="rotate(0, 720, 880) scale(1)" cx="720" cy="880" r="5"></circle><circle  transform="rotate(0, 760, 880) scale(1)" cx="760" cy="880" r="5"></circle><circle  transform="rotate(0, 800, 880) scale(1)" cx="800" cy="880" r="5"></circle><circle  transform="rotate(0, 840, 880) scale(1)" cx="840" cy="880" r="5"></circle><circle  transform="rotate(0, 880, 880) scale(1)" cx="880" cy="880" r="5"></circle>
</g>
</svg>